<svg width="700" height="700" viewBox="0 0 700 700" fill="none" xmlns="http://www.w3.org/2000/svg">
<path d="M697.992 357.826V353.481C698.463 354.108 698.717 354.87 698.717 355.653C698.717 356.436 698.463 357.199 697.992 357.826Z" fill="#FCFCFC"/>
<path d="M418.374 535.578C418.374 535.578 402.036 460.187 399.497 457.976C396.957 455.765 393.051 457.731 394.433 461.908C395.815 466.084 414.818 534.058 415.611 535.578C416.379 537.05 418.833 537.686 418.374 535.578Z" fill="#574439"/>
<path d="M313.811 434.485C313.69 420.722 350.746 379.349 370.037 374.192C391.891 368.351 419.915 357.745 428.141 376.915C436.366 396.086 408.801 455.139 408.801 455.139C408.801 455.139 407.27 460.386 401.685 460.97C396.101 461.555 327.305 463.612 327.198 460.97C327.138 459.286 304.095 437.297 313.811 434.485V434.485Z" fill="#B8CDE6"/>
<path d="M665.895 595.035C665.895 595.035 645.821 502.418 642.71 499.702C639.599 496.986 634.793 499.4 636.489 504.531C638.185 509.663 661.528 593.164 662.502 595.035C663.445 596.845 666.459 597.618 665.895 595.035V595.035Z" fill="#574439"/>
<path d="M537.442 470.835C537.293 453.928 582.814 403.102 606.526 396.768C633.368 389.594 667.792 376.562 677.903 400.114C688.015 423.664 654.143 496.208 654.143 496.208C654.143 496.208 652.263 502.651 645.401 503.374C638.54 504.095 554.029 506.619 553.896 503.374C553.814 501.309 525.494 474.29 537.442 470.835V470.835Z" fill="#B8CDE6"/>
<path d="M13.9511 595.332C13.9511 595.332 34.1091 502.341 37.231 499.615C40.3521 496.89 45.1797 499.312 43.4764 504.465C41.7739 509.618 18.336 593.456 17.3593 595.334C16.4122 597.147 13.3849 597.93 13.9511 595.332V595.332Z" fill="#574439"/>
<path d="M142.924 470.636C143.074 453.661 97.3682 402.63 73.5606 396.27C46.6047 389.066 12.0457 375.982 1.89256 399.622C-8.26062 423.261 25.7482 496.107 25.7482 496.107C25.7482 496.107 27.6368 502.576 34.5253 503.299C41.4139 504.023 126.268 506.556 126.4 503.299C126.486 501.23 154.92 474.105 142.924 470.636Z" fill="#B8CDE6"/>
<path d="M528.649 544.865L513.276 531.792C512.83 531.409 512.554 530.866 512.507 530.281C512.46 529.695 512.648 529.115 513.028 528.667L513.312 528.334C513.695 527.889 514.239 527.612 514.826 527.565C515.413 527.518 515.994 527.705 516.443 528.084L531.816 541.159C532.264 541.541 532.541 542.084 532.588 542.669C532.635 543.255 532.446 543.835 532.065 544.282L531.78 544.617C531.397 545.062 530.852 545.338 530.266 545.385C529.679 545.431 529.098 545.244 528.649 544.865" fill="#3B3E44"/>
<path d="M532.733 523.442L518.766 525.054C518.766 525.054 514.806 525.87 517.316 528.934C519.826 532 526.747 539.742 530.591 540.696C534.434 541.65 535.475 538.799 535.475 538.799L540.842 530.337L532.733 523.442ZM514.999 505.501L511.915 513.894C511.915 513.894 509.158 518.078 506.079 515.46C502.999 512.842 488.892 502.07 488.892 502.07C488.892 502.07 485.103 498.848 489.421 497.623C493.74 496.398 501.584 500.621 501.584 500.621L509.384 501.544L514.999 505.501V505.501Z" fill="#F0AE9F"/>
<path d="M531.839 542.4C535.445 542.113 534.502 538.57 534.502 538.57C531.562 532.716 525.361 533.536 525.361 533.536C526.359 529.51 521.575 524.795 521.575 524.795C521.575 524.795 516.258 523.009 515.227 527.565" stroke="#3B3E44" stroke-width="0.96" stroke-miterlimit="10"/>
<path d="M500.237 512.117C500.933 510.756 501.356 509.274 501.483 507.752C501.643 506.193 501.493 504.618 501.044 503.117C500.543 501.575 499.609 500.209 498.354 499.181C497.128 498.114 495.518 497.715 494.039 497.582C495.318 498.419 496.557 499.103 497.42 500.182C498.299 501.196 498.964 502.377 499.373 503.654C499.796 504.941 499.99 506.323 500.117 507.736C500.244 509.149 500.25 510.604 500.237 512.117Z" fill="#3B3E44"/>
<path d="M586.928 398.092L582.444 366.014L610.557 371.735L603.108 387.477L586.92 398.089" fill="#F0AE9F"/>
<path d="M566.207 411.926C570.424 402.918 571.604 395.378 571.886 390.166C572.116 385.865 572.632 376.38 568.409 375.329C567.217 375.03 565.288 375.001 560.111 379.51C554.262 384.606 549.258 391.023 544.332 400.651C543.149 402.96 539.162 410.965 536.095 422.141C533.086 433.113 533.469 438.014 534.195 441.42C534.697 443.79 535.625 447.934 538.636 450.981C539.991 452.358 542.654 454.401 545.794 456.047L546.14 456.228C549.741 458.038 556.518 461.421 561.694 459.384C566.249 457.589 567.375 452.446 568.529 447.311C569.629 442.395 569.617 438.466 569.031 436.01C567.681 430.385 566.31 422.398 566.203 411.945" fill="#FFAE7D"/>
<path d="M496.476 483.215L577.574 413.825L594.827 434.029L595.601 432.985L624.149 455.421L622.35 464.435L556.168 545.677C555.689 546.383 555.037 546.956 554.275 547.342C551.775 548.559 547.02 547.942 530.109 531.898C522.309 524.496 517.581 519.175 510.066 510.68C496.69 495.554 492.655 489.51 494.624 485.375C495.05 484.509 495.687 483.762 496.476 483.204" fill="#F2A577"/>
<path d="M608.471 378.784C598.575 392.205 588.825 399.467 584.568 397.164C579.441 394.385 583.168 378.2 583.618 376.304C581.302 375.935 578.979 375.619 576.649 375.355C570.198 374.632 568.814 374.869 568.094 375.039C564.227 375.96 561.875 378.962 560.49 380.728C555.717 386.822 551.134 405.807 549.048 431.343C561.057 435.304 573.558 437.584 586.195 438.118C600.778 438.733 606.968 437.702 615.949 435.686L617.582 431.343C619.94 431.022 623.529 430.582 627.92 430.258C635.139 429.73 613.327 379.121 608.477 378.782" fill="#FFAE7D"/>
<path opacity="0.42" d="M586.481 399.504C586.089 402.978 586.256 406.491 586.974 409.913C588.395 416.853 591.843 423.219 596.882 428.21C599.357 430.686 602.213 432.75 605.342 434.326C599.888 430.057 595.305 424.917 592.101 418.966C588.855 413.03 587.064 406.39 586.479 399.5" fill="black"/>
<path d="M594.494 416.384C593.406 413.89 591.608 409.858 591.473 409.517C589.721 405.09 588.175 400.562 587.268 395.882C586.154 390.131 586.013 384.222 584.807 378.49C584.722 378.095 584.635 377.011 583.867 376.03C583.13 375.085 582.162 374.701 581.399 374.402C579.286 373.592 577.409 373.874 576.014 374.086C574.538 374.31 573.794 374.422 573.163 375.034C572.057 376.106 572.174 377.862 572.212 378.511C572.548 383.983 572.187 389.502 572.847 394.944C573.729 402.243 574.187 407.367 576.389 412.434C576.905 413.55 577.52 414.618 578.227 415.626C580.008 418.238 582.58 420.477 585.783 420.954C589.14 421.454 592.61 420.243 595.338 418.333C595.348 418.333 594.993 417.511 594.494 416.378" fill="#A66641"/>
<path opacity="0.2" d="M594.961 417.546C595.632 416.591 596.425 415.726 597.319 414.974C598.211 414.186 599.063 413.353 599.871 412.479C601.475 410.71 602.925 408.807 604.206 406.792C605.392 404.798 606.656 402.851 607.995 400.955C609.346 399.034 610.733 397.191 612.139 395.266C610.192 396.646 608.412 398.246 606.833 400.034C606.025 400.915 605.292 401.843 604.565 402.81C603.838 403.776 603.225 404.816 602.599 405.782C601.38 407.738 600.06 409.658 598.724 411.546L596.628 414.354C595.915 415.306 595.264 416.391 594.968 417.546H594.961ZM558.116 407.751C558.589 405.761 558.954 403.803 559.344 401.852C559.734 399.902 560.118 397.964 560.555 396.035C560.958 394.101 561.422 392.179 561.863 390.245C562.304 388.311 562.794 386.371 563.186 384.366C560.967 387.804 559.583 391.68 558.7 395.641C557.869 399.61 557.522 403.716 558.116 407.754" fill="#010103"/>
<path d="M484.907 502.152L506.005 520.096C506.438 520.463 507 520.644 507.566 520.598C508.133 520.553 508.658 520.285 509.027 519.854C509.21 519.64 509.348 519.392 509.435 519.125C509.522 518.858 509.555 518.576 509.532 518.296C509.51 518.016 509.432 517.743 509.304 517.493C509.175 517.243 508.999 517.021 508.784 516.839L487.684 498.895C487.361 498.622 486.964 498.45 486.544 498.402C486.123 498.353 485.697 498.43 485.32 498.623C484.943 498.815 484.632 499.115 484.425 499.484C484.219 499.853 484.126 500.275 484.16 500.696C484.183 500.976 484.26 501.248 484.388 501.498C484.517 501.748 484.693 501.97 484.907 502.152" fill="#3B3E44"/>
<path d="M579.636 470.617L532.97 527.147C532.97 527.147 529.132 530.992 529.816 532.118C530.5 533.243 539.236 540.211 539.236 540.211C539.236 540.211 540.606 541.297 541.957 539.714C543.308 538.13 588.247 478.491 588.247 478.491L579.636 470.617V470.617ZM552.579 414.862C552.729 414.598 552.948 414.379 553.214 414.229C554.153 413.72 555.419 414.386 555.753 414.546C558.655 415.973 575.223 420.698 585.021 421.964C589.788 422.574 593.77 422.462 598.413 422.326C603.13 422.19 605.986 422.094 609.84 421.24C612.278 420.698 615.071 420.078 618.547 418.526C621.345 417.274 621.64 416.734 622.355 416.898C624.873 417.477 623.863 428.489 623.443 436.982C623.217 441.585 623.988 444.762 622.647 447.566C622.466 447.956 621.724 449.157 620.18 450.546C615.077 455.135 607.566 455.601 604.55 455.64C597.364 455.619 590.18 455.408 583.006 455.007C578.258 454.741 572.613 454.338 565.583 453.11C551.482 450.648 549.301 447.767 548.476 446.157C547.767 444.777 547.897 442.289 548.158 437.31C548.433 432.3 549.175 427.326 550.377 422.454C550.999 419.894 551.739 417.363 552.593 414.87" fill="#A66641"/>
<path opacity="0.8" d="M569.679 441.418C573.498 441.074 575.978 439.748 577.282 438.885C578.403 438.147 580.101 436.998 580.133 435.411C580.133 435.266 580.155 434.297 579.5 433.83C578.929 433.425 578.103 433.584 577.6 433.83C575.757 434.734 575.786 437.971 575.381 437.939C574.976 437.906 575.503 435.024 573.796 433.197C573.547 432.93 572.818 432.15 571.895 432.25C571.544 432.305 571.212 432.451 570.934 432.673C570.656 432.895 570.442 433.186 570.312 433.517C569.969 434.422 570.451 435.661 572.851 438.258C574.939 440.515 577.278 442.53 579.821 444.262" stroke="black" stroke-width="0.9" stroke-linecap="round" stroke-linejoin="round"/>
<path d="M564.925 452.155C571.956 453.384 577.601 453.783 582.35 454.051C589.524 454.452 596.708 454.664 603.894 454.685C606.91 454.645 614.413 454.18 619.523 449.591C621.066 448.202 621.804 447 621.991 446.61C623.336 443.799 622.559 440.63 622.787 436.026C622.988 431.955 623.332 427.309 623.344 423.506C623.43 423.504 623.516 423.514 623.599 423.534C626.119 424.111 625.109 435.125 624.688 443.618C624.462 448.223 625.232 451.398 623.891 454.203C623.71 454.594 622.968 455.798 621.425 457.185C616.32 461.774 608.81 462.237 605.794 462.277C598.609 462.257 591.425 462.046 584.251 461.646C579.502 461.378 573.856 460.978 566.826 459.749C553.889 457.489 551.112 455.025 549.719 452.798C548.658 451.097 548.45 449.237 548.199 445.77C549.741 447.845 553.058 450.09 564.925 452.164V452.155ZM592.806 416.449C589.741 416.974 579.167 414.916 573.798 413.288C565.202 410.682 560.903 409.379 559.225 408.547C558.986 408.43 558.21 408.038 557.324 408.23C555.397 408.654 554.183 411.579 554.156 412.971C554.005 420.666 589.203 427.061 593.124 422.769C594.118 421.596 594.775 420.177 595.025 418.662C595.187 417.542 594.985 417.033 594.708 416.766C594.126 416.194 593.075 416.403 592.806 416.449" fill="#D9A180"/>
<path opacity="0.8" d="M548.451 430.98C563.583 437.262 579.727 440.769 596.107 441.333" stroke="black" stroke-width="0.9" stroke-linecap="round" stroke-linejoin="round"/>
<path d="M607.598 463.232C607.433 463.344 607.273 463.454 607.121 463.566C605.565 463.077 603.902 463.033 602.322 463.438C597.048 464.302 600.06 467.754 600.06 467.754C598.948 467.792 597.881 468.202 597.031 468.919C596.644 469.252 595.856 469.936 595.714 470.926C595.593 471.782 596.037 472.279 597.981 474.85C599.828 477.297 600.324 478.037 601.542 479.151C602.401 479.942 602.833 480.336 603.252 480.458C605.853 481.214 608.958 477.514 609.842 476.527C610.73 475.533 611.464 474.41 612.018 473.198C612.109 472.834 612.177 472.464 612.221 472.091C613.581 471.324 614.912 470.508 616.211 469.642C624.161 464.381 620.146 452.756 609.484 461.786C608.881 462.301 608.251 462.784 607.598 463.234" fill="#EFAD9E"/>
<path d="M608.879 379.466C611.172 378.694 614.995 377.771 619.158 378.831C640.081 384.174 641.242 432.453 641.449 441.074C641.449 441.074 642.422 465.72 632.904 473.042C631.269 474.296 629.363 475.153 627.338 475.545C626.369 475.688 624.151 475.876 620.05 474.278C617.533 473.3 616.263 472.411 611.809 469.493C604.568 464.754 600.937 462.402 600.725 462.27C596.455 459.599 590.13 453.854 589.347 447.614C588.228 438.563 589.656 429.38 593.47 421.092C596.718 414.064 601.574 407.948 606.623 402.133C607.688 400.908 609.525 399.475 610.191 397.997C610.895 396.426 610.229 394.042 610.065 392.275C609.959 391.13 608.453 379.61 608.879 379.466" fill="#FFAE7D"/>
<path d="M584.887 398.427C596.105 390.583 600.239 386.975 601.811 385.154C603.705 382.964 605.983 381.084 607.787 378.831C607.911 378.67 608.05 378.522 608.203 378.388C608.203 378.388 608.317 378.29 608.45 378.207C609.358 377.562 610.4 377.129 611.498 376.941C612.008 376.883 611.87 376.971 612.768 376.941C613.621 376.902 614.47 376.796 615.307 376.624C616.74 376.42 618.742 376.95 619.426 377.89C620.861 379.863 617.275 384.712 615.307 387.37C614.66 388.247 612.741 390.446 607.389 395.905C605.085 398.25 602.652 400.466 600.101 402.542C595.1 406.607 590.533 410.251 588.063 408.862C587.452 408.518 586.86 407.807 586.552 406.329" fill="#A66641"/>
<path d="M644.353 289.474C641.834 284.383 633.551 268.269 614.813 260.886C612.054 259.801 588.385 250.934 568.786 264.713C564.854 267.476 554.418 274.811 552.782 286.39C550.943 299.418 561.378 309.829 555.684 318.93C552.732 323.649 550.218 326.424 550.218 326.424C548.45 328.192 546.796 330.071 545.267 332.048C542.051 336.21 542.096 337.295 542.194 337.838C542.668 340.434 546.565 340.63 546.68 342.953C546.761 344.652 544.321 345.752 544.927 347.721C545 347.966 545.114 348.196 545.267 348.401C546.451 349.962 545.169 353.386 549.024 358.282C550.475 360.117 550.932 360.801 551.586 361.859C553.352 364.722 551.116 367.062 552.608 369.355C553.555 370.803 555.095 371.13 558.246 371.91C562.882 373.061 567.432 374.542 572.077 375.659C581.077 377.83 580.546 378.054 582.733 378.22C588.324 378.638 592.68 377.118 595.494 376.269C619.389 369.066 631.336 365.466 639.102 357.182C655.201 340.02 654.465 309.902 644.351 289.47" fill="#EFAD9E"/>
<path d="M571.74 295.457C571.74 295.457 570.922 293.738 572.36 292.6C572.36 292.6 586.105 283.674 590.251 304.265C590.251 304.265 583.917 289.634 571.74 295.457Z" fill="#49312F"/>
<path d="M585.577 349.601C586.388 354.99 581.291 360.3 574.194 361.46C567.097 362.619 560.687 359.198 559.875 353.808C559.061 348.418 564.16 343.109 571.257 341.947C578.355 340.786 584.765 344.21 585.586 349.601" fill="#FF8E91"/>
<path d="M569.522 336.184C571.734 336.303 573.948 336.011 576.052 335.323C588.749 331.162 593.366 313.782 593.914 311.62C591.758 308.945 589.103 306.711 586.097 305.041C579.583 301.47 573.401 301.883 570.649 302.262C569.683 302.452 568.76 302.82 567.928 303.347C560.129 308.312 558.689 328.509 566.058 334.507C567.07 335.32 568.255 335.891 569.522 336.177" fill="white"/>
<path d="M561.176 318.514C560.269 327.762 563.465 335.626 568.329 336.065C573.194 336.505 577.871 329.37 578.786 320.13C579.7 310.889 576.494 303.017 571.634 302.568C566.773 302.119 562.088 309.262 561.176 318.505" fill="black"/>
<path d="M566.652 310.791C565.686 313.506 566.056 316.107 567.474 316.615C568.893 317.124 570.83 315.349 571.794 312.635C572.76 309.921 572.391 307.319 570.971 306.81C569.551 306.302 567.615 308.077 566.652 310.791" fill="#E6EDE5"/>
<path d="M615.39 378.678C614.14 378.271 613.025 377.53 612.167 376.535C610.591 374.476 610.569 371.751 611.153 369.168C613.01 360.938 613.148 361.595 613.148 361.595C613.148 361.595 619.758 362.082 624.194 354.528C628.231 347.652 629.817 337.279 624.32 333.089C621.478 330.917 617.146 330.694 614.013 332.102C612.508 332.777 611.637 333.671 606.693 340.143C602.101 346.156 600.61 348.326 599.732 347.973C599.242 347.772 598.834 346.803 599.267 343.338C601.432 334.612 603.383 325.835 605.117 317.014C607.395 305.434 608 300.335 606.205 294.27C605.311 291.259 593.926 274.457 583.774 273.15L572.348 287.526C561.629 291.507 554.495 290.118 552.284 288.341C550.186 286.654 553.137 281.246 555.264 277.204C561.005 266.28 570.518 260.751 574.006 258.929C590.214 250.425 606.43 253.663 614.49 255.207C621.721 256.591 633.887 259.081 645.128 269.139C655.721 278.611 660.077 291.082 662.101 296.61C663.18 299.537 664.082 302.527 664.8 305.562C668.656 322.646 664.936 348.445 647.7 365.352C633.802 378.989 618.136 379.597 615.405 378.685" fill="#49312F"/>
<path d="M618.924 341.947C615.725 342.745 612.776 344.342 610.753 346.832C608.632 349.239 607.514 352.387 607.055 355.641C606.935 353.969 607.138 352.29 607.653 350.695C608.178 349.08 609.006 347.58 610.093 346.274C611.203 344.984 612.56 343.929 614.083 343.168C615.591 342.422 617.242 342.004 618.924 341.943" fill="#BC8680"/>
<path d="M610.21 347.134C611.826 347.714 613.085 349.194 613.579 350.9C614.009 352.622 613.66 354.546 612.518 355.83C613.003 354.22 613.193 352.619 612.741 351.126C612.379 349.606 611.414 348.309 610.202 347.146" fill="#BC8680"/>
<path d="M637.924 291.756C628.921 289.066 611.315 279.919 605.743 272.37C583.048 241.624 620.393 239.832 623.385 239.908C635.9 240.223 654.083 245.389 666.511 265.368C671.645 273.622 673.347 302.346 637.924 291.756Z" fill="#49312F"/>
<path d="M546.17 352.818C548.215 352.845 550.259 352.737 552.289 352.494C554.155 352.249 555.988 351.801 557.756 351.158C558.869 350.748 559.958 350.278 561.02 349.751C561.102 349.711 561.03 349.588 560.948 349.63C557.467 351.42 553.635 352.431 549.721 352.59C548.538 352.653 547.352 352.682 546.166 352.677C546.157 352.677 546.148 352.679 546.139 352.682C546.13 352.686 546.123 352.691 546.116 352.698C546.103 352.711 546.095 352.729 546.095 352.747C546.095 352.766 546.103 352.784 546.116 352.798C546.13 352.811 546.148 352.818 546.166 352.818H546.17V352.818Z" fill="#AF5354"/>
<path d="M593.916 249.73C604.554 250.213 608.607 247.682 610.209 253.294C611.81 258.907 609.946 261.945 607.015 265.974C604.084 270.004 598.223 269.888 595.338 263.43C592.452 256.973 593.37 254.926 590.251 253.298C587.13 251.67 588.98 247.578 588.98 247.578L593.916 249.73V249.73Z" fill="#FF7157"/>
<path d="M594.901 247.686C593.776 245.63 591.503 246.11 589.391 246.6C587.278 247.09 584.281 248.358 583.62 251.79C581.935 260.516 585.161 259.616 587.597 259.752C590.032 259.888 598.8 254.814 594.901 247.686Z" fill="#FF7157"/>
<path d="M330.616 401.925C330.772 402.345 330.882 403.879 331.437 404.096C333.099 404.722 337.089 403.191 340.506 401.914C344.061 400.597 347.349 399.786 348.084 398.194C348.293 397.742 348.164 396.064 348.024 395.691C347.4 394.01 342.802 394.135 338.23 395.829C333.658 397.522 329.975 400.251 330.612 401.932" fill="#56534C"/>
<path d="M331.421 404.043C332.047 405.724 336.257 405.712 340.82 404.018C345.383 402.325 348.579 399.589 347.951 397.91C347.324 396.23 343.116 396.238 338.551 397.931C333.986 399.625 330.793 402.362 331.421 404.043" fill="#808080"/>
<path d="M319.779 365.038C321.202 361.347 325.619 362.61 325.619 362.61L341.036 395.903C337.214 397.594 334.851 398.291 334.851 398.291" fill="black"/>
<path opacity="0.2" d="M394.448 539.487C394.448 544.42 372.705 548.422 345.883 548.422C319.062 548.422 297.319 544.42 297.319 539.487C297.319 534.555 319.062 530.553 345.883 530.553C372.705 530.553 394.448 534.553 394.448 539.487Z" fill="#010103"/>
<path d="M329.03 540.122H311.389C310.812 540.122 310.258 539.894 309.85 539.487C309.442 539.079 309.213 538.527 309.213 537.951C309.213 537.375 309.442 536.823 309.85 536.416C310.258 536.009 310.812 535.78 311.389 535.78H329.03C329.597 535.795 330.136 536.031 330.531 536.436C330.927 536.842 331.148 537.385 331.148 537.951C331.148 538.517 330.927 539.061 330.531 539.466C330.136 539.872 329.597 540.107 329.03 540.122ZM383.142 538.35H354.917C354.34 538.35 353.786 538.122 353.378 537.714C352.97 537.307 352.74 536.755 352.74 536.179C352.74 535.603 352.97 535.051 353.378 534.644C353.786 534.237 354.34 534.008 354.917 534.008H383.142C383.719 534.008 384.273 534.237 384.681 534.644C385.089 535.052 385.318 535.604 385.319 536.179C385.319 536.464 385.263 536.747 385.154 537.011C385.045 537.274 384.884 537.514 384.682 537.715C384.48 537.917 384.24 538.077 383.976 538.186C383.711 538.295 383.428 538.351 383.142 538.35" fill="#3B3E44"/>
<path d="M319.566 523.202L311.01 532.371C311.01 532.371 308.793 535.215 312.279 535.846C315.765 536.478 324.954 537.743 328.122 536.163C331.291 534.584 330.339 532.054 330.339 532.054L329.069 523.202H319.566ZM357.615 521.12L354.447 529.654C354.447 529.654 353.813 534.721 357.933 534.721C362.052 534.721 380.113 535.667 380.113 535.667C380.113 535.667 385.191 535.667 382.652 531.868C380.113 528.068 371.246 526.177 371.246 526.177L364.587 521.755L357.615 521.12V521.12Z" fill="#EFAD9E"/>
<path d="M329.964 536.602C332.246 534.326 329.549 532.463 329.549 532.463C324.153 530.186 320.416 534.326 320.416 534.326C318.756 531.014 312.769 530.574 312.769 530.574C312.769 530.574 308.123 532.434 310.067 536.123" stroke="#3B3E44" stroke-width="0.47" stroke-miterlimit="10"/>
<path d="M364.672 535.97C365.032 534.458 365.687 533.031 366.599 531.771C367.505 530.456 368.663 529.333 370.005 528.466C371.413 527.603 373.04 527.16 374.693 527.19C376.349 527.173 377.86 527.927 379.095 528.795C377.55 528.602 376.135 528.314 374.757 528.582C373.405 528.79 372.11 529.266 370.948 529.984C369.769 530.708 368.706 531.647 367.672 532.657C366.639 533.667 365.677 534.792 364.678 535.97" fill="#3B3E44"/>
<path d="M337.413 420.067L342.591 512.853C342.591 512.853 343.331 526.128 346.291 527.35C349.251 528.571 364.943 527.647 393.655 524.694L369.678 426.652L366.125 418.676L337.413 420.067V420.067Z" fill="#261917"/>
<path d="M309.405 416.313L296.085 522.329C296.085 522.329 295.791 523.711 307.33 526.463C318.87 529.215 333.085 529.736 338.708 526.066C344.331 522.398 344.036 512.616 344.036 512.616L344.332 423.346L309.405 416.313V416.313Z" fill="#261917"/>
<path d="M376.054 491.703C376.054 491.703 385.485 498.782 388.024 498.233L343.292 398.912C343.292 398.912 337.193 399.114 335.918 402.417" fill="#56534C"/>
<path d="M312.476 401.813C312.476 401.813 319.105 406.846 340.261 407.08C360.926 407.31 370.161 403.729 370.858 402.576C371.557 401.424 377.557 420.002 371.029 422.886C364.501 425.77 310.795 429.957 309.26 418.993C307.884 409.142 312.476 401.813 312.476 401.813" fill="#4D4D4D"/>
<path d="M163.273 511.228C163.273 511.228 174.191 516.428 176.694 515.49L113.213 428.013C113.213 428.013 107.005 429.216 106.286 432.582" fill="#56544C"/>
<path d="M171.04 541.018L147.253 559.595C146.464 560.212 145.352 560.112 144.779 559.376L144.275 558.723C143.7 557.986 143.88 556.878 144.668 556.262L168.454 537.678C169.243 537.062 170.356 537.162 170.928 537.898L171.434 538.552C172.005 539.288 171.829 540.395 171.04 541.01" fill="#3B3E44"/>
<path d="M139.56 544.387L142.045 552.956C142.045 552.956 144.533 557.239 147.903 554.606C151.274 551.974 166.614 541.162 166.614 541.162C166.614 541.162 170.76 537.924 166.432 536.639C162.105 535.354 153.716 539.565 153.716 539.565L145.642 540.421L139.56 544.387V544.387Z" fill="#EEAC9D"/>
<path d="M154.166 551.266C153.537 549.893 153.275 548.371 153.242 546.815C153.208 545.209 153.488 543.611 154.066 542.11C154.715 540.531 155.78 539.155 157.149 538.13C158.493 537.057 160.178 536.67 161.703 536.547C160.325 537.386 158.998 538.07 158.027 539.156C157.05 540.171 156.274 541.363 155.742 542.666C155.197 543.971 154.897 545.38 154.654 546.811C154.411 548.242 154.291 549.726 154.175 551.265L154.166 551.266ZM198.927 512.507L177.509 533.744C176.8 534.45 175.673 534.49 175.006 533.838L174.416 533.258C173.748 532.604 173.785 531.494 174.494 530.79L195.913 509.553C196.622 508.847 197.748 508.807 198.417 509.46L199.005 510.039C199.672 510.694 199.638 511.803 198.927 512.507" fill="#3B3E44"/>
<path d="M167.86 519.75L171.446 527.866C171.446 527.866 174.485 531.766 177.52 528.758C180.554 525.748 194.515 513.197 194.515 513.197C194.515 513.197 198.251 509.494 193.752 508.767C189.251 508.04 181.405 513.231 181.405 513.231L173.424 515.082L167.86 519.75V519.75Z" fill="#EEAC9D"/>
<path d="M183.357 524.692C182.55 523.425 182.088 521.95 181.861 520.429C181.619 518.851 181.694 517.242 182.08 515.694C182.53 514.057 183.418 512.574 184.649 511.403C185.857 510.18 187.491 509.594 189.002 509.279C187.732 510.276 186.488 511.114 185.655 512.302C184.81 513.42 184.187 514.689 183.82 516.041C183.457 517.39 183.321 518.811 183.259 520.254C183.197 521.695 183.259 523.166 183.354 524.692" fill="#3B3E44"/>
<path d="M87.2326 440.849L132.939 518.726C134.253 522.068 137.095 527.654 142.552 529.534C147.144 531.114 153.598 527.543 166.312 520.318C178.301 513.51 182.468 509.542 182.156 505.778C182.136 505.499 182.088 505.222 182.015 504.951C160.624 480.423 139.231 455.895 117.836 431.367L111.241 426.138L87.2326 440.849V440.849Z" fill="#171E26"/>
<path d="M66.6223 469.717C81.5061 478.684 89.9327 488.583 94.895 496.033C97.373 499.754 117.273 530.33 124.782 545.599C125.554 547.17 127.8 551.838 132.077 552.49C133.986 552.781 135.69 552.178 136.611 551.778C141.367 548.923 145.972 545.825 150.407 542.496C161.004 534.534 168.091 528.518 168.845 521.221C168.998 519.743 168.571 518.301 167.72 516.517C166.869 514.733 116.19 469.026 100.828 451.018L66.6223 469.717V469.717Z" fill="#171E26"/>
<path d="M89.2431 375.846C90.3569 368.398 89.1236 364.013 87.8261 361.398C87.8261 361.398 86.5566 358.826 77.7603 351.061L105.164 344.381L121.646 360.776L120.683 379.217C120.683 379.217 118.173 378.993 124.673 387.457C131.173 395.922 132.354 402.918 132.354 402.918L78.7033 397.852C80.5682 393.378 82.5711 388.962 84.709 384.611C86.1535 381.656 87.6653 378.734 89.2431 375.848" fill="#EEAC9D"/>
<path d="M99.8549 433.674C99.9023 434.105 99.6136 435.572 100.116 435.903C101.625 436.893 106.04 436.421 109.814 436.059C113.735 435.684 117.25 435.721 118.41 434.405C118.738 434.03 119.048 432.426 119.004 432.053C118.823 430.323 114.156 429.322 109.123 429.806C104.09 430.289 99.6625 431.954 99.8549 433.683" fill="#56544C"/>
<path d="M100.108 435.856C100.29 437.586 104.538 438.598 109.571 438.114C114.604 437.631 118.531 435.838 118.34 434.11C118.15 432.382 113.913 431.369 108.878 431.852C103.843 432.335 99.9183 434.126 100.108 435.856V435.856Z" fill="#808080"/>
<path d="M98.5967 396.43C100.994 393.312 105.104 395.566 105.104 395.566L111.897 430.562C107.613 431.222 105.052 431.302 105.052 431.302" fill="black"/>
<path d="M133.918 388.007C131.923 384.629 129.413 383.054 125.181 380.407C122.702 378.857 122.622 379.291 120.103 378.258C120.375 379.343 118.267 379.218 118.471 381.153C119.388 389.657 117.11 398.642 115.612 398.73C115.235 398.751 114.972 398.21 114.818 397.897C114.818 397.897 113.201 394.593 105.43 381.723C103.628 378.764 101.352 376.119 98.6913 373.895C97.9199 373.354 97.1461 372.817 96.3698 372.283C94.9987 372.253 93.627 372.264 92.2567 372.318C83.219 372.667 77.5526 372.887 72.9062 376.052C60.9206 384.213 59.2735 409.526 68.915 438.172L120.725 446.343C127.559 433.098 131.261 421.662 133.367 413.574C137.508 397.678 136.218 391.904 133.922 388.007" fill="#5A8FCC"/>
<path opacity="0.3" d="M113.108 398.536C112.81 398.746 112.339 399.322 112.019 399.778C111.67 400.269 111.339 400.772 111.029 401.288C110.392 402.311 109.77 403.342 109.16 404.382C108.548 405.418 108.201 406.616 107.316 407.486C106.431 408.357 105.502 409.213 104.089 409.812L103.819 409.662C103.745 408.214 104.144 407.027 104.664 405.903C105.185 404.78 106.237 403.964 107.091 403.042C107.944 402.104 108.848 401.212 109.799 400.37C110.289 399.949 110.793 399.544 111.312 399.158C111.573 398.966 111.845 398.78 112.128 398.604C112.456 398.465 112.654 398.221 113.216 398.261L113.108 398.536V398.536Z" fill="black"/>
<path opacity="0.2" d="M86.7651 382.407C86.9696 384.283 87.648 386.073 88.4812 387.781C89.348 389.495 90.3227 391.154 91.3994 392.746C93.5446 395.958 95.8341 399.104 97.9864 402.394L96.0875 403.39C96.0554 404.087 99.5847 401.486 98.0498 402.522L98.061 402.538L98.0915 402.598L98.1556 402.725L98.2896 402.98L98.5582 403.492L99.1019 404.518L100.19 406.573L102.407 410.674C103.896 413.398 105.412 416.11 106.78 418.888C108.148 421.666 109.388 424.497 110.589 427.338C111.187 428.763 111.768 430.196 112.33 431.637C112.626 432.351 112.874 433.084 113.152 433.808L113.57 434.894L113.777 435.437L113.884 435.699L113.941 435.822L113.964 435.871V435.883C113.951 435.883 113.993 435.906 113.937 435.873C113.881 435.84 113.73 435.923 113.755 435.959L114.049 436.062C114.049 436.098 113.906 436.197 113.824 436.153C113.803 436.146 113.784 436.137 113.766 436.124L113.715 436.081L113.648 436.018L113.537 435.898L113.336 435.666C113.209 435.51 113.077 435.357 112.959 435.196L112.257 434.235C111.802 433.589 111.326 432.952 110.902 432.294C110.027 430.989 109.199 429.658 108.383 428.326C106.776 425.648 105.238 422.939 103.814 420.183C102.391 417.428 101.152 414.59 99.8854 411.764L97.9632 407.539L96.9985 405.43L96.5157 404.371L96.2759 403.841L96.1564 403.574L96.0947 403.436L96.0642 403.365L96.0426 403.316L96.0313 403.291V403.277C94.4932 404.31 98.0265 401.701 97.9904 402.392L97.8092 406.465L96.0971 403.389C94.2374 400.043 92.0851 396.79 90.235 393.359C89.2841 391.652 88.4425 389.886 87.7154 388.072C87.0209 386.263 86.4892 384.358 86.4459 382.422L86.7651 382.407V382.407ZM122.697 439.26C124.451 433.738 126.43 428.382 128.214 422.95C130.061 417.536 131.711 412.094 133.642 406.615C133.28 412.369 131.96 418.014 130.146 423.511C128.28 428.988 125.914 434.334 122.697 439.253" fill="black"/>
<path d="M52.0032 278.333C54.6841 273.179 63.4964 256.864 83.4355 249.397C86.3681 248.298 111.548 239.328 132.406 253.271C136.589 256.068 147.692 263.494 149.434 275.217C151.391 288.407 140.287 298.946 146.351 308.158C149.492 312.935 152.165 315.746 152.165 315.746C153.558 317.068 155.703 317.779 157.708 320.246C161.13 324.454 157.492 330.114 152.365 330.546C151.303 330.635 154.028 334.621 153.391 336.613C153.275 336.975 142.422 336.624 146.618 339.119C147.672 339.743 151.934 341.45 152.644 341.63C152.644 341.63 153.841 342.201 154.164 342.934C154.421 343.518 154.276 344.24 153.438 345.693C152.241 347.764 151.409 348.242 150.718 349.311C148.839 352.206 151.218 356.884 149.63 359.205C148.623 360.674 146.983 361.004 143.634 361.793C138.7 362.958 133.857 364.456 128.917 365.592C119.34 367.787 119.904 368.015 117.579 368.183C111.628 368.606 106.994 367.067 103.999 366.21C78.5782 358.918 65.8653 355.271 57.6023 346.885C40.4748 329.515 41.2591 299.022 52.0177 278.334" fill="#EEAC9D"/>
<path d="M141.74 289.688C141.74 289.688 146.579 288.693 141.539 284.754C136.939 281.157 118.529 270.939 106.605 284.854C106.605 284.854 125.649 278.68 141.74 289.688V289.688Z" fill="#201A19"/>
<path d="M115.942 339.202C115.063 344.658 120.59 350.035 128.292 351.207C135.993 352.38 142.95 348.918 143.83 343.463C144.71 338.008 139.181 332.63 131.48 331.454C123.78 330.278 116.821 333.747 115.942 339.202Z" fill="#F48C90"/>
<path d="M132.242 316.761C129.869 316.58 127.526 316.116 125.263 315.378C111.901 310.974 108.262 298.455 107.839 296.901C109.692 295.754 112.639 294.261 116.779 293.313C124.079 291.639 130.707 292.668 133.646 293.264C134.64 293.502 135.599 293.867 136.5 294.35C144.527 298.71 144.513 312.793 136.104 316.033C134.864 316.483 133.558 316.727 132.239 316.757" fill="white"/>
<path d="M142.61 305.598C142.876 312.078 138.816 317.106 133.541 316.827C128.265 316.549 123.768 311.071 123.5 304.592C123.231 298.113 127.294 293.082 132.569 293.362C137.843 293.64 142.343 299.118 142.61 305.598" fill="#461F11"/>
<path d="M141.473 309.01C141.312 311.153 139.981 312.449 138.499 311.89C137.017 311.33 135.949 309.152 136.112 307.004C136.275 304.857 137.605 303.566 139.084 304.127C140.565 304.688 141.637 306.865 141.473 309.013" fill="#E5EBE4"/>
<path d="M83.5903 368.639C84.9295 368.24 86.1371 367.49 87.0875 366.468C88.798 364.382 88.8212 361.624 88.1885 359.008C86.1717 350.685 86.0265 351.343 86.0265 351.343C86.0265 351.343 78.8549 351.835 74.041 344.187C69.6592 337.228 67.9303 326.725 73.903 322.474C76.9864 320.285 81.6881 320.05 85.0883 321.476C86.721 322.16 87.6657 323.064 93.0329 329.618C98.0153 335.705 99.6328 337.899 100.585 337.543C101.116 337.341 101.559 336.36 101.089 332.853C98.7463 324.025 96.6296 315.138 94.741 306.202C92.2711 294.47 91.6127 289.318 93.5678 283.176C94.5382 280.13 96.1925 274.728 101.286 271.054C112.168 263.197 128.618 268.882 132.452 270.218C144.082 274.243 149.683 280.927 152.081 279.129C154.357 277.421 151.156 269.991 148.849 265.898C142.618 254.842 132.297 249.252 128.513 247.392C110.92 238.786 93.3264 242.062 84.5823 243.625C76.7346 245.027 63.5429 247.548 51.3368 257.727C39.8452 267.317 35.1163 279.941 32.9198 285.538C32.5084 286.593 30.9808 290.519 29.9928 294.602C25.8084 311.897 29.8436 338.008 48.5469 355.13C63.6279 368.938 80.6175 369.551 83.5903 368.628" fill="#201A19"/>
<path d="M75.7138 327.426C79.1861 328.235 82.385 329.853 84.5799 332.377C86.8814 334.813 88.0963 338.001 88.5935 341.295C88.7236 339.6 88.5019 337.895 87.9423 336.289C87.3644 334.637 86.4651 333.116 85.296 331.813C84.0724 330.493 82.6015 329.424 80.9664 328.668C79.3138 327.908 77.5253 327.486 75.7065 327.426" fill="#BB8580"/>
<path d="M85.1765 332.674C83.4227 333.258 82.0594 334.757 81.5221 336.485C81.0546 338.227 81.4355 340.174 82.6721 341.474C82.1476 339.846 81.9463 338.218 82.4291 336.71C82.8156 335.173 83.8798 333.859 85.1765 332.674V332.674Z" fill="#BB8580"/>
<path d="M41.8044 294.731L43.3481 269.78C43.3481 269.78 31.6271 254.262 13.98 262.682C5.96473 266.506 0.093836 287.642 10.9687 298.008C22.9655 309.44 41.8044 294.731 41.8044 294.731V294.731Z" fill="#201A19"/>
<path d="M68.4018 433.482C68.4018 433.482 88.7883 433.14 94.968 433.102C101.148 433.064 127.342 429.679 127.978 428.385C128.614 427.091 136.444 444.235 129.804 447.758C123.164 451.281 76.7522 461.475 67.5405 451.634C58.3288 441.793 68.4018 433.482 68.4018 433.482V433.482Z" fill="#5A718C"/>
<path d="M91.2182 462.38C91.3995 462.499 91.5807 462.617 91.7619 462.742C93.533 462.224 95.4087 462.177 97.2038 462.604C103.189 463.509 99.7716 467.177 99.7716 467.177C101.023 467.211 102.231 467.643 103.218 468.41C103.655 468.762 104.551 469.496 104.711 470.537C104.849 471.442 104.348 471.968 102.139 474.698C100.044 477.29 99.4781 478.073 98.0979 479.254C97.1204 480.092 96.6304 480.508 96.1549 480.638C93.2046 481.438 89.6785 477.519 88.6753 476.477C87.6736 475.436 86.8396 474.247 86.203 472.952C86.0987 472.566 86.0217 472.174 85.9728 471.778C84.4309 470.968 82.9186 470.104 81.4387 469.186C72.4131 463.612 76.9728 451.301 89.0763 460.863C89.763 461.41 90.4774 461.921 91.2166 462.394" fill="#EEAC9D"/>
<path d="M89.7627 373.664C87.1596 372.846 82.8196 371.867 78.0947 372.993C54.3352 378.65 53.0257 429.782 52.7915 438.91C52.7915 438.91 51.6849 465.011 62.4916 472.768C64.3756 474.105 66.5328 475.009 68.8084 475.417C69.9094 475.567 72.4363 475.768 77.0811 474.078C79.9375 473.041 81.3794 472.098 86.4363 469.011C94.6561 463.992 98.7699 461.501 99.0185 461.359C103.866 458.531 111.045 452.448 111.934 445.838C113.199 436.22 111.57 426.444 107.254 417.751C103.567 410.31 98.0554 403.83 92.3216 397.667C91.1155 396.37 89.0265 394.854 88.2735 393.289C87.474 391.624 88.2302 389.098 88.4155 387.227C88.5366 386.017 90.2455 373.814 89.7627 373.657" fill="#5486BF"/>
<path d="M525.983 589.128L526.708 589.055C527.278 588.999 527.704 588.038 527.66 586.91L521.976 444.172L511.176 438.722L524.282 586.253C524.372 587.941 525.127 589.213 525.983 589.128ZM134.739 589.128L134.014 589.055C133.443 588.999 133.016 588.038 133.062 586.91L138.746 444.172L149.547 438.722L136.452 586.253C136.35 587.941 135.598 589.213 134.739 589.128V589.128Z" fill="#574439"/>
<path d="M321.312 466.15C436.619 466.15 530.093 457.048 530.093 445.818C530.093 434.59 436.619 425.486 321.312 425.486C206.007 425.486 112.533 434.59 112.533 445.818C112.533 457.048 206.007 466.15 321.312 466.15Z" fill="#705849"/>
<path d="M530.093 436.442H112.533V445.818H530.093V436.442Z" fill="#705849"/>
<path d="M321.312 456.774C436.619 456.774 530.093 447.671 530.093 436.442C530.093 425.214 436.619 416.11 321.312 416.11C206.007 416.11 112.533 425.214 112.533 436.442C112.533 447.671 206.007 456.774 321.312 456.774Z" fill="#806453"/>
<path d="M285.211 421.596C285.102 421.862 284.993 422.12 284.883 422.369C286.662 425.378 286.55 428.537 286.515 429.078C286.898 436.762 281.1 433.573 281.1 433.573C281.384 435.149 281.129 436.774 280.374 438.188C280.011 438.83 279.286 440.151 277.933 440.649C276.761 441.082 275.923 440.606 271.699 438.658C267.681 436.802 266.482 436.328 264.537 434.955C263.158 433.983 262.469 433.497 262.168 432.945C260.312 429.507 264.6 424.022 265.728 422.481C266.864 420.928 268.226 419.553 269.769 418.402C270.258 418.164 270.761 417.957 271.276 417.782C273.28 411.279 285.967 374.143 315.512 369.339L322.279 387.674C322.279 387.674 293.133 402.308 285.206 421.602" fill="#EFAD9E"/>
<path d="M363.139 361.054C359.693 361.44 356.945 362.774 355.112 363.897L348.633 370.592C348.472 370.568 348.305 370.852 348.003 371.242L347.213 372.059C347.005 372.226 346.781 372.372 346.546 372.497C345.294 373.156 343.368 373.382 342.096 372.497C342.002 372.43 341.911 372.357 341.824 372.28L337.319 364.532C335.708 363.891 334.092 363.261 332.473 362.643C328.41 361.089 324.98 359.853 324.525 359.701C318.797 357.772 303.808 365.766 289.178 382.098C284.477 387.345 268.988 404.637 274.168 416.476C274.894 418.121 276.15 419.552 278.673 422.398C282.526 426.751 286.98 429.558 295.732 434.99C298.789 436.888 300.184 437.635 301.805 437.235C303.948 436.71 305.032 434.438 307.127 429.477C309.792 423.173 311.226 419.239 312.518 416.066C315.072 409.79 316.508 406.294 318.408 404.272C331.66 410.423 353.847 409.278 365.327 405.252C369.185 408.636 394.109 381.491 391.64 378.851" fill="#FF7B6F"/>
<path d="M342.894 375.878L330.888 346.724L361.419 343.34L355.157 363.124L342.894 375.878ZM286.597 310.176C279.046 302.993 275.872 302.423 274.375 303.27C270.861 305.26 271.421 317.991 278.95 324.158C283.896 328.209 290.03 327.937 292.045 327.762L286.597 310.176ZM398.919 290.888C400.878 286.494 404.485 279.554 407.75 279.992C411.496 280.497 414.574 290.707 411.673 298.731C411.292 299.788 407.708 309.287 400.312 309.242C394.983 309.208 391.486 304.241 391.007 303.541" fill="#EFAD9E"/>
<path d="M399.599 274.513C410.41 304.566 393.104 338.262 360.944 349.784C328.784 361.306 298.007 347.75 287.201 317.698C276.395 287.646 289.631 252.466 321.792 240.953C353.954 229.439 388.787 244.466 399.602 274.52" fill="#EFAD9E"/>
<path d="M337.89 317.455C339.676 318.331 341.413 318.722 343.097 318.413C344.78 318.103 346.279 317.168 347.658 315.733C347.451 316.745 346.928 317.665 346.164 318.362C345.382 319.101 344.4 319.595 343.34 319.782C342.279 319.969 341.187 319.84 340.198 319.413C339.243 319.017 338.435 318.332 337.89 317.455" fill="#BC8680"/>
<path d="M287.816 295.276C288.859 291.438 290.276 287.711 292.045 284.148C294.585 279.037 296.656 274.886 300.995 271.266C303.104 269.506 309.157 264.458 316.461 265.114C324.397 265.837 326.536 272.754 335.686 273.426C338.469 273.608 341.261 273.265 343.917 272.414C346.37 271.275 348.75 269.986 351.044 268.555C353.258 267.112 355.324 265.455 357.211 263.606C358.381 262.459 358.597 262.012 359.488 261.395C361.065 260.31 363.68 258.85 367.016 258.663C373.396 258.301 378.214 262.814 383.046 267.334C386.873 270.926 390.14 275.07 392.737 279.628C394.651 282.782 396.379 286.045 397.914 289.399C400.453 294.946 401.327 298.254 402.156 298.113C403.202 297.932 403.271 292.397 402.932 288.704C402.809 287.381 402.614 286.066 402.347 284.765C402.347 284.765 401.144 273.158 394.951 262.445C386.32 247.506 364.936 232.986 340.073 233.97C312.252 235.07 290.817 255.035 283.25 275.61C281.228 281.15 280.085 286.971 279.862 292.862C279.906 297.77 280.663 302.646 282.108 307.338C283.707 312.498 286.316 317.935 287.215 317.678C287.941 317.474 287.012 313.698 286.902 307.558C286.826 303.441 287.137 299.325 287.83 295.265" fill="#49312F"/>
<path d="M328.813 246.093L349.539 242.822L350.326 219.587C349.026 218.701 342.509 214.463 333.821 216.039C326.356 217.394 322.021 222.191 320.833 223.601L328.813 246.093Z" fill="#49312F"/>
<path d="M348.894 357.079C354.116 356.421 354.839 355.903 355.647 355.604C356.169 355.423 357.641 354.58 357.939 354.462L359.278 350.462C358.135 350.909 357.712 351.066 355.887 351.634C353.728 352.335 351.525 352.895 349.293 353.31C345.566 353.97 342.669 353.954 339.602 353.938C336.997 353.923 335.171 353.831 333.685 353.701L335.423 357.306C338.171 357.524 343.295 357.781 348.894 357.079" fill="#BC8680"/>
<path d="M328.878 329.236L354.451 328.071C354.451 328.071 360.048 327.012 358.327 334.165C357.192 338.891 352.322 345.058 344.906 346.246C337.155 347.484 330.798 342.662 328.005 338.616C327.147 337.374 324.601 333.689 326.057 331.156C326.719 330.003 327.979 329.484 328.883 329.236" fill="#AF5354"/>
<path d="M333.492 342.736C333.559 341.107 338.59 339.895 342.259 339.766C346.377 339.624 351.704 340.746 351.833 342.418C351.956 344.028 347.238 346.145 342.903 346.268C338.369 346.398 333.423 344.37 333.492 342.736Z" fill="#D46B59"/>
<path d="M393.048 316.082C393.048 320.634 388.113 324.327 382.025 324.327C375.939 324.327 371.004 320.634 371.004 316.082C371.004 311.53 375.937 307.834 382.025 307.834C388.114 307.834 393.048 311.526 393.048 316.082Z" fill="#FF8E91"/>
<path d="M408.635 426.786C408.744 427.054 408.852 427.309 408.963 427.558C407.183 430.567 407.296 433.726 407.331 434.27C406.935 441.961 412.739 438.764 412.739 438.764C412.455 440.34 412.71 441.966 413.465 443.38C413.827 444.022 414.553 445.341 415.907 445.84C417.079 446.271 417.917 445.795 422.141 443.85C426.159 441.994 427.358 441.519 429.304 440.146C430.683 439.174 431.372 438.698 431.671 438.136C433.528 434.698 429.24 429.216 428.113 427.674C426.978 426.12 425.615 424.745 424.069 423.596C423.582 423.357 423.079 423.149 422.564 422.975C420.56 416.472 407.873 379.334 378.329 374.533L371.567 392.858C371.567 392.858 400.712 407.494 408.64 426.786" fill="#EFAD9E"/>
<path d="M330.706 366.243C334.152 366.63 336.898 367.962 338.733 369.086C340.892 371.318 343.052 373.55 345.212 375.781C345.374 375.757 345.541 376.042 345.842 376.43L346.632 377.248C346.84 377.415 347.064 377.562 347.3 377.686C348.55 378.345 350.476 378.57 351.749 377.686C351.845 377.62 351.935 377.547 352.021 377.469L356.526 369.723C358.137 369.081 359.753 368.451 361.372 367.832C365.436 366.278 368.866 365.042 369.32 364.89C375.048 362.963 390.036 370.957 404.667 387.286C409.368 392.534 424.858 409.826 419.677 421.665C418.951 423.31 417.695 424.741 415.172 427.587C411.32 431.942 406.865 434.749 398.123 440.178C395.065 442.078 393.67 442.824 392.048 442.426C389.907 441.901 388.822 439.626 386.727 434.666C384.063 428.362 382.628 424.428 381.336 421.256C378.781 414.981 377.347 411.474 375.445 409.462C362.194 415.614 340.005 414.469 328.528 410.443C324.67 413.826 299.745 386.681 302.214 384.042" fill="#FF7B6F"/>
<path d="M315.207 319.489C315.207 323.9 310.428 327.478 304.529 327.478C298.631 327.478 293.854 323.9 293.854 319.489C293.854 315.078 298.634 311.498 304.529 311.498C310.424 311.498 315.207 315.078 315.207 319.489Z" fill="#FF8E91"/>
<path opacity="0.42" d="M343.299 373.908C341.404 376.693 339.396 379.389 337.394 382.088C335.363 384.765 333.322 387.435 331.206 390.05C329.088 392.664 326.853 395.183 324.688 397.749C322.525 400.314 320.452 402.967 318.437 405.658V405.321C318.981 405.909 319.578 406.462 320.087 407.078C320.597 407.693 321.114 408.298 321.566 408.954C322.021 409.61 322.432 410.294 322.795 411.004C323.185 411.717 323.513 412.462 323.775 413.231L323.662 413.311C323.025 412.805 322.431 412.247 321.885 411.645C321.338 411.064 320.829 410.448 320.363 409.801C319.893 409.158 319.51 408.457 319.093 407.783C318.676 407.11 318.368 406.356 317.987 405.645L317.883 405.444L317.998 405.308C320.153 402.73 322.24 400.097 324.258 397.412C326.254 394.709 328.214 391.971 330.257 389.302C332.299 386.634 334.443 384.046 336.582 381.454C338.758 378.886 340.914 376.313 343.19 373.829L343.299 373.908V373.908Z" fill="black"/>
<path d="M315.978 282.769C305.651 281.026 297.465 288.57 295.778 290.26L295.664 290.202C295.664 290.267 295.643 290.34 295.63 290.41L295.517 290.526L295.604 290.57C295.098 293.66 294.372 301.17 298.844 307.122C305.399 315.85 320.877 318.222 335.022 310.091C335.824 296.115 326.91 284.614 315.978 282.769" fill="white"/>
<path d="M328.962 298.999C329.073 302.025 328.283 305.015 326.691 307.593C325.099 310.17 322.777 312.219 320.018 313.481C317.259 314.743 314.187 315.159 311.19 314.679C308.194 314.198 305.408 312.841 303.185 310.78C300.961 308.72 299.399 306.047 298.698 303.102C297.997 300.156 298.187 297.068 299.245 294.23C300.124 291.871 301.573 289.764 303.463 288.096C305.354 286.429 307.627 285.252 310.082 284.671C312.537 284.089 315.098 284.12 317.538 284.762C319.978 285.403 322.222 286.636 324.071 288.349C325.547 289.717 326.739 291.362 327.578 293.189C328.417 295.016 328.887 296.991 328.962 298.999V298.999Z" fill="black"/>
<path d="M310.744 305.274C310.777 306.186 310.539 307.087 310.059 307.864C309.579 308.641 308.879 309.258 308.048 309.638C307.426 309.922 306.749 310.064 306.065 310.056C305.381 310.047 304.708 309.887 304.094 309.588C303.479 309.289 302.939 308.858 302.512 308.325C302.085 307.793 301.781 307.172 301.623 306.509C301.465 305.845 301.456 305.155 301.598 304.487C301.74 303.82 302.028 303.192 302.442 302.649C302.856 302.107 303.386 301.662 303.993 301.348C304.6 301.034 305.269 300.858 305.952 300.833C307.178 300.79 308.37 301.233 309.268 302.066C310.167 302.898 310.697 304.052 310.744 305.274V305.274ZM364.708 279.829C374.866 277.25 383.637 284.102 385.454 285.65L385.563 285.583L385.615 285.787L385.737 285.894L385.655 285.943C386.41 288.982 387.748 296.409 383.781 302.703C377.962 311.931 362.73 315.565 347.966 308.613C346.022 294.747 353.967 282.558 364.708 279.829" fill="white"/>
<path d="M350.199 297.525C350.311 300.55 351.32 303.475 353.097 305.928C354.875 308.382 357.342 310.255 360.186 311.31C363.272 312.455 366.645 312.579 369.807 311.664C372.968 310.75 375.752 308.845 377.745 306.232C379.739 303.618 380.837 300.434 380.877 297.151C380.918 293.867 379.899 290.657 377.97 287.995C376.042 285.333 373.307 283.361 370.169 282.369C367.03 281.377 363.655 281.418 360.542 282.486C357.429 283.555 354.743 285.593 352.881 288.301C351.018 291.009 350.078 294.243 350.199 297.525V297.525Z" fill="black"/>
<path d="M364.354 303.617C364.388 304.529 364.15 305.43 363.67 306.207C363.191 306.985 362.491 307.603 361.66 307.983C360.828 308.363 359.902 308.489 358.999 308.343C358.095 308.199 357.256 307.79 356.585 307.169C355.915 306.548 355.444 305.743 355.233 304.855C355.084 304.229 355.068 303.578 355.186 302.945C355.304 302.312 355.554 301.711 355.919 301.18C356.284 300.649 356.756 300.2 357.306 299.862C357.855 299.524 358.469 299.305 359.109 299.218C359.748 299.131 360.399 299.179 361.019 299.358C361.639 299.537 362.214 299.844 362.708 300.258C363.202 300.672 363.604 301.185 363.888 301.764C364.171 302.342 364.33 302.973 364.354 303.617V303.617Z" fill="white"/>
<path d="M356.36 279.574L356.694 274.05C356.694 274.05 376.464 263.69 386.009 282.103C386.009 282.103 370.23 270.806 356.36 279.57V279.574ZM326.928 282.952L326.184 277.162C326.184 277.162 303.464 267.147 294.07 286.874C294.07 286.874 310.889 274.343 326.928 282.943" fill="#49312F"/>
<path fill-rule="evenodd" clip-rule="evenodd" d="M506.256 447.722L542.247 437.789L541.768 433.841L505.382 443.993L506.256 447.722Z" fill="#CCCCCC"/>
<path fill-rule="evenodd" clip-rule="evenodd" d="M505.383 443.993L541.768 433.841L502.073 429.85L505.383 443.993Z" fill="#ADADAD"/>
<path fill-rule="evenodd" clip-rule="evenodd" d="M414.818 379.452L485.03 381.931C486.72 381.975 488.346 382.581 489.652 383.652C490.957 384.723 491.867 386.199 492.236 387.844L506.256 447.722L426.599 439.822L410.984 384.316C410.821 383.735 410.797 383.125 410.915 382.533C411.033 381.942 411.289 381.386 411.663 380.912C412.036 380.438 412.517 380.059 413.065 379.805C413.613 379.551 414.214 379.43 414.818 379.452V379.452Z" fill="#E6E6E6"/>
<path fill-rule="evenodd" clip-rule="evenodd" d="M411.404 390.987C411.404 390.987 429.88 429.283 446.194 433.352C462.509 437.422 509.057 444.603 509.057 444.603L510.737 451.064L422.681 441.252C422.681 441.252 411.404 390.508 411.404 390.987V390.987Z" fill="#E0E0E0"/>
<path fill-rule="evenodd" clip-rule="evenodd" d="M453.943 406.664C457.056 406.664 460.082 409.182 460.7 412.289C461.319 415.396 459.293 417.914 456.179 417.914C453.064 417.914 450.04 415.396 449.421 412.289C448.802 409.182 450.825 406.664 453.943 406.664Z" fill="#B3B3B3"/>
<path opacity="0.5" fill-rule="evenodd" clip-rule="evenodd" d="M498.861 382.251L454.954 444.963L466.95 446.638L508.699 382.729C508.699 382.729 498.622 382.006 498.861 382.251ZM480.147 379.378C479.906 379.139 489.983 379.858 489.983 379.858L448.236 443.77L436.238 442.097L480.147 379.378V379.378Z" fill="white"/>
<path d="M46.8228 152.75C47.0145 150.321 48.7097 149.456 50.7763 149.11C51.8084 148.998 52.848 148.971 53.8846 149.03C97.1757 149.026 140.467 149.026 183.759 149.03C190.18 149.03 191.404 150.24 191.404 156.57V212.497C191.404 217.366 190.088 218.646 185.097 218.646C143.882 218.646 102.667 218.622 61.4515 218.577C60.3408 218.492 59.227 218.696 58.2191 219.169C57.2112 219.642 56.3438 220.369 55.7017 221.277C53.0185 224.802 50.2109 228.237 47.4555 231.706C46.2406 231.73 46.5461 230.793 46.5461 230.16C46.5373 204.65 46.5373 179.139 46.5461 153.629C46.5782 153.32 46.6721 153.021 46.8228 152.749V152.75ZM240.114 106.905C240.124 103.858 241.294 102.206 243.242 101.492C244.218 100.733 245.277 101.092 246.295 101.092C288.081 101.071 329.867 101.071 371.653 101.092C372.668 101.092 373.731 100.705 374.7 101.522C375.825 102.626 376.697 104.187 377.206 106.006C377.732 107.414 377.482 108.937 377.483 110.399C377.499 143.376 377.485 176.352 377.439 209.327C377.439 210.761 378.441 212.979 376.57 213.8C373.885 208.894 371.157 204.03 368.526 199.062C367.121 196.403 365.368 195.766 363.111 195.77C323.86 195.858 284.608 195.89 245.356 195.864C242.601 195.864 240.32 195.337 240.113 190.431C239.801 189.447 239.703 188.407 239.826 187.382C239.819 161.572 239.819 135.762 239.826 109.954C239.704 108.929 239.802 107.89 240.114 106.906V106.905ZM489.093 166.936C491.49 168.354 492.266 170.462 492.245 173.205C492.157 185.222 492.214 197.241 492.203 209.259C492.203 213.863 490.645 215.434 486.137 215.434C459.758 215.434 433.378 215.535 407 215.338C402.451 215.304 398.981 216.067 396.568 220.231C395.951 221.297 395.111 223.487 393.741 223.006C392.372 222.526 393.18 220.411 393.18 219.044C393.125 203.503 393.18 187.962 393.11 172.422C393.098 169.862 393.891 168.018 396.255 166.938C397.121 166.422 398.078 166.65 398.992 166.65C428.114 166.638 457.236 166.638 486.357 166.65C487.269 166.65 488.225 166.425 489.093 166.936V166.936ZM650.83 221.8C648.488 217.398 646.125 213.02 643.814 208.584C642.79 206.619 641.377 207.237 640.091 207.235C608.733 207.206 577.374 207.198 546.015 207.21C540.212 207.21 538.922 205.323 538.922 196.822C538.922 176.483 538.952 156.145 538.894 135.809C538.883 132.11 539.462 129.223 542.04 127.883C542.909 127.146 543.862 127.472 544.775 127.471C578.385 127.454 611.994 127.454 645.603 127.471C646.517 127.471 647.47 127.147 648.338 127.882C649.068 128.234 649.73 128.83 650.273 129.626C650.816 130.422 651.223 131.394 651.462 132.464C651.991 133.89 651.741 135.434 651.741 136.922C651.758 163.708 651.774 190.495 651.695 217.282C651.691 218.726 652.705 220.981 650.83 221.8V221.8Z" fill="#E0EFFF" fill-opacity="0.5"/>
</svg>
