<svg width="700" height="700" viewBox="0 0 700 700" fill="none" xmlns="http://www.w3.org/2000/svg">
<path opacity="0.2" d="M374.671 623.554C374.671 633.098 416.391 640.833 467.855 640.833C519.321 640.833 561.036 633.098 561.036 623.554C561.036 614.011 519.318 606.277 467.855 606.277C416.394 606.277 374.671 614.013 374.671 623.554Z" fill="#010103"/>
<path opacity="0.3" d="M487.376 304.568C484.703 309.106 481.736 313.314 478.706 317.454C475.676 321.593 472.551 325.619 469.42 329.651C466.205 333.62 463.017 337.606 459.643 341.467C456.268 345.327 452.847 349.182 449.026 352.783C450.97 347.883 453.459 343.311 456.194 338.907C461.652 330.093 468.125 321.95 475.478 314.643C479.159 310.994 483.044 307.543 487.37 304.568" fill="black"/>
<g opacity="0.5">
<path opacity="0.5" d="M500.198 624.792H534.046C535.137 624.763 536.173 624.308 536.932 623.523C537.694 622.737 538.119 621.684 538.119 620.589C538.119 619.493 537.694 618.441 536.932 617.654C536.173 616.87 535.137 616.414 534.046 616.385H500.198C499.639 616.371 499.083 616.469 498.563 616.674C498.043 616.879 497.57 617.186 497.171 617.577C496.569 618.17 496.158 618.929 495.991 619.757C495.824 620.585 495.91 621.444 496.236 622.223C496.561 623 497.113 623.661 497.82 624.12C498.527 624.578 499.355 624.813 500.198 624.792V624.792ZM396.373 621.367H450.527C451.077 621.367 451.621 621.258 452.128 621.047C452.636 620.836 453.097 620.526 453.484 620.136C454.27 619.346 454.71 618.277 454.709 617.162C454.71 616.048 454.27 614.979 453.484 614.189C453.097 613.799 452.636 613.489 452.129 613.278C451.621 613.066 451.077 612.957 450.527 612.957H396.373C395.823 612.957 395.279 613.066 394.771 613.278C394.264 613.489 393.803 613.799 393.416 614.189C392.63 614.979 392.189 616.048 392.189 617.162C392.189 618.277 392.63 619.346 393.416 620.136C393.803 620.526 394.264 620.836 394.771 621.047C395.279 621.258 395.823 621.367 396.373 621.367Z" fill="#3B3E44"/>
<path opacity="0.5" d="M518.359 592.079L534.781 609.808C534.781 609.808 539.028 615.312 532.346 616.535C525.664 617.76 508.031 620.2 501.949 617.145C495.867 614.09 497.702 609.196 497.702 609.196L500.134 592.079H518.359V592.079ZM445.348 588.042L451.43 604.555C451.43 604.555 452.645 614.334 444.739 614.334C436.834 614.334 402.181 616.169 402.181 616.169C402.181 616.169 392.457 616.169 397.321 608.834C402.184 601.501 419.206 597.827 419.206 597.827L431.973 589.269L445.348 588.042V588.042Z" fill="#EFAD9E"/>
<path opacity="0.5" d="M498.404 617.988C494.025 613.584 499.203 609.979 499.203 609.979C509.554 605.572 516.72 613.584 516.72 613.584C519.905 607.178 531.395 606.324 531.395 606.324C531.395 606.324 540.31 609.922 536.581 617.06" stroke="#3B3E44" stroke-width="0.65" stroke-miterlimit="10"/>
<path opacity="0.5" d="M431.812 616.764C429.913 614.486 428.03 612.345 426.068 610.355C424.106 608.365 422.044 606.574 419.782 605.185C417.551 603.797 415.063 602.873 412.466 602.469C409.819 601.956 407.106 602.508 404.139 602.884C406.509 601.204 409.409 599.752 412.585 599.784C415.731 599.662 418.899 600.638 421.58 602.246C424.159 603.926 426.38 606.098 428.118 608.638C429.816 611.115 431.176 613.832 431.812 616.764" fill="#3B3E44"/>
<path opacity="0.5" d="M484.112 392.595L474.174 572.05C474.174 572.05 472.758 597.722 467.077 600.085C461.394 602.449 431.291 600.655 376.191 594.946L422.197 405.329L429.009 389.91L484.112 392.595V392.595Z" fill="#010103"/>
<path opacity="0.5" d="M537.849 385.337L563.407 590.38C563.407 590.38 563.973 593.051 541.824 598.372C519.675 603.693 492.412 604.706 481.621 597.608C470.832 590.511 471.397 571.591 471.397 571.591L470.831 398.938L537.849 385.337V385.337Z" fill="#010103"/>
<path opacity="0.5" d="M483.201 310.265L460.08 253.662L518.884 247.096L506.82 285.501L483.201 310.265V310.265Z" fill="#EFAD9E"/>
<path opacity="0.5" d="M549.363 291.007C544.839 286.716 539.768 283.04 534.283 280.075C530.481 279.163 526.609 278.574 522.708 278.312C516.839 277.919 513.342 277.742 509.732 279.736C507.608 280.935 505.804 282.629 504.472 284.673L494.686 297.507C494.346 297.9 493.939 298.478 493.467 299.159L490.983 302.495C489.505 304.241 487.79 305.681 486.005 305.482C482.136 305.055 479.995 299.338 478.71 297.47L469.579 281.433C469.194 280.44 468.66 279.511 467.996 278.679C461.622 270.742 444.779 273.105 436.081 276.914C422.154 283.01 413.481 299.56 412.582 318.883C433.332 342.05 436.509 352.194 433.623 356.619C431.704 359.559 426.095 361.504 426.608 364.021C426.959 365.752 429.81 365.858 431.868 367.196C438.701 371.632 431.914 386.425 435.028 394.704C442.763 415.289 514.469 403.057 526.216 401.054L539.439 398.112" fill="#FF7B6F"/>
<path opacity="0.5" d="M410.172 360.198C410.172 360.198 455.904 370.27 468.466 370.834C481.029 371.398 534.809 368.035 536.316 365.792C537.822 363.548 550.892 394.904 536.82 400.503C522.748 406.104 426.759 419.536 409.671 401.073C392.585 382.61 410.172 360.209 410.172 360.209" fill="#56534C"/>
<path opacity="0.5" d="M479.06 273.865C485.459 274.548 490.369 274.07 495.977 273.495C501.177 272.96 506.338 272.096 511.428 270.907L514.74 261.662C511.891 262.906 508.937 263.895 505.912 264.618C500.661 265.873 496.68 265.956 489.728 266.101C485.188 266.25 480.642 266.125 476.116 265.728C472.01 265.352 467.931 264.733 463.899 263.874L467.05 271.379C470.963 272.597 474.986 273.429 479.06 273.865" fill="#BC8680"/>
<path opacity="0.5" d="M515.679 363.975C515.379 364.79 515.163 367.757 514.101 368.158C510.91 369.37 503.255 366.402 496.683 363.944C489.866 361.381 483.554 359.825 482.147 356.747C481.745 355.87 481.992 352.627 482.258 351.907C483.459 348.658 492.284 348.894 501.041 352.175C509.797 355.454 516.882 360.716 515.679 363.975Z" fill="#56534C"/>
<path opacity="0.5" d="M514.136 368.073C512.932 371.324 504.857 371.301 496.1 368.027C487.343 364.753 481.213 359.46 482.42 356.209C483.625 352.958 491.695 352.978 500.452 356.257C509.209 359.537 515.339 364.821 514.136 368.073Z" fill="#808080"/>
<path opacity="0.5" d="M428.5 537.614C428.5 537.614 410.399 551.301 405.537 550.245L491.355 358.15C491.355 358.15 503.056 358.54 505.511 364.93" fill="#56534C"/>
<path opacity="0.5" d="M448.089 357.712L445.133 291.597C445.133 291.597 447.698 269.805 428.292 274.284C408.887 278.762 360.661 380.017 360.661 380.017C360.661 380.017 353.642 388.891 356.462 398.465C358.466 405.278 364.358 409.156 371.08 412.761C380.962 418.056 397.527 425.487 421.933 430.532L444.465 434.649C447.961 435.148 452.503 435.19 455.467 432.58C461.039 427.685 457.625 416.46 455.564 408.587C452.463 396.729 449.134 379.871 448.089 357.7" fill="#FF7B6F"/>
<path opacity="0.3" d="M446.284 294.942C448.425 310.128 449.509 325.369 450.327 340.621C451.046 355.878 451.493 371.151 450.874 386.476C448.722 371.29 447.643 356.052 446.828 340.797C446.119 325.54 445.669 310.268 446.284 294.942Z" fill="black"/>
<path opacity="0.5" d="M326.664 647.777C326.664 659.552 355.387 669.096 390.827 669.096C426.266 669.096 454.978 659.552 454.978 647.777C454.978 636.001 426.255 626.461 390.827 626.461C355.399 626.461 326.664 636.001 326.664 647.777V647.777Z" fill="#C3B6B2"/>
<path opacity="0.5" d="M332.8 461.645C333.706 461.647 334.599 461.427 335.401 461.005C336.203 460.583 336.889 459.971 337.401 459.223L461.251 278.579C462.054 277.352 462.347 275.861 462.068 274.421C461.792 272.983 460.963 271.71 459.759 270.875C458.56 270.041 457.081 269.714 455.642 269.964C454.202 270.214 452.918 271.02 452.066 272.208L328.216 452.85C327.638 453.693 327.301 454.677 327.239 455.697C327.178 456.717 327.394 457.734 327.866 458.64C328.337 459.545 329.046 460.303 329.917 460.834C330.786 461.364 331.784 461.644 332.8 461.645Z" fill="#808080"/>
<path opacity="0.5" d="M365.721 644.409C365.721 648.748 377.708 652.264 392.496 652.264C407.284 652.264 419.275 648.748 419.275 644.409C419.275 640.07 407.287 636.559 392.496 636.559C377.706 636.559 365.721 640.073 365.721 644.409Z" fill="#9D938E"/>
<path opacity="0.5" d="M391.94 646.963C393.045 646.962 394.125 646.633 395.043 646.017C395.96 645.401 396.674 644.525 397.093 643.502C397.373 642.822 397.518 642.093 397.518 641.357V414.526C397.535 413.779 397.404 413.037 397.131 412.342C396.859 411.647 396.45 411.013 395.93 410.478C395.411 409.945 394.79 409.52 394.105 409.23C393.073 408.793 391.933 408.679 390.836 408.901C389.738 409.124 388.733 409.674 387.953 410.478C387.433 411.013 387.024 411.647 386.752 412.342C386.479 413.037 386.347 413.779 386.365 414.526V641.357C386.363 642.842 386.95 644.268 387.997 645.322C388.514 645.841 389.128 646.254 389.804 646.535C390.481 646.817 391.207 646.962 391.94 646.963" fill="#666666"/>
<path opacity="0.5" d="M393.611 381.44C394.881 380.481 396.008 379.347 396.958 378.071C397.945 376.709 398.7 375.193 399.192 373.585L389.144 365.715L364.596 401.62L385.797 417.327C385.797 417.327 399.187 421.817 401.417 411.716C401.417 411.716 405.883 404.985 399.187 400.498C392.491 396.011 386.912 392.64 386.912 392.64C386.233 387.86 387.303 385.636 388.481 384.494C389.747 383.265 390.893 383.523 393.605 381.426" fill="black"/>
<path opacity="0.5" d="M413.336 292.568L495.009 260.395L486.766 239.253L405.094 271.425C401.966 275.719 401.88 282.022 404.675 286.666C405.608 288.219 406.865 289.551 408.361 290.572C409.855 291.59 411.553 292.271 413.336 292.568" fill="#9D938E"/>
<path opacity="0.5" d="M379.847 109.901C358.02 171.056 392.959 239.626 457.886 263.057C522.814 286.489 584.93 258.921 606.757 197.765C628.583 136.609 601.851 65.022 536.939 41.5929C472.029 18.1639 401.688 48.7428 379.861 109.901" fill="#EFAD9E"/>
<path opacity="0.5" d="M504.422 197.286C500.815 199.068 497.31 199.849 493.912 199.234C490.514 198.619 487.485 196.7 484.702 193.782C485.119 195.839 486.175 197.711 487.72 199.132C489.292 200.636 491.275 201.642 493.417 202.022C495.56 202.402 497.768 202.14 499.762 201.269C501.695 200.462 503.325 199.068 504.422 197.283" fill="#BC8680"/>
<path opacity="0.5" d="M597.919 151.05C595.879 143.499 593.108 136.164 589.646 129.15C584.68 119.087 580.628 110.917 572.14 103.792C568.025 100.328 556.18 90.3932 541.89 91.6954C526.363 93.1112 522.179 106.731 504.293 108.053C498.849 108.411 493.386 107.736 488.192 106.064C483.393 103.827 478.74 101.291 474.259 98.4703C469.931 95.6267 465.894 92.3643 462.205 88.7303C459.917 86.4688 459.494 85.591 457.753 84.3759C454.666 82.2281 449.555 79.3644 443.026 78.9979C430.547 78.2961 421.121 87.1687 411.671 96.0715C404.179 103.147 397.79 111.304 392.713 120.271C388.972 126.477 385.591 132.893 382.588 139.487C377.618 150.402 375.911 156.915 374.287 156.637C372.24 156.29 372.092 145.385 372.772 138.126C373.012 135.524 373.395 132.936 373.919 130.375C373.919 130.375 376.271 107.519 388.379 86.4414C405.264 57.0395 447.086 28.4616 495.728 30.3973C550.148 32.565 592.076 71.8602 606.876 112.354C610.831 123.259 613.065 134.713 613.499 146.305C613.417 155.974 611.939 165.58 609.109 174.826C605.982 184.984 600.879 195.685 599.121 195.178C597.708 194.774 599.519 187.346 599.736 175.258C599.881 167.154 599.272 159.054 597.917 151.063" fill="#49312F"/>
<path opacity="0.5" d="M522.621 221.264L470.992 218.893C470.992 218.893 459.692 216.738 463.166 231.295C465.456 240.91 475.293 253.463 490.273 255.88C505.919 258.4 518.753 248.586 524.393 240.351C526.125 237.827 531.267 230.325 528.326 225.168C526.989 222.825 524.444 221.768 522.621 221.264V221.264Z" fill="#AF5354"/>
<path opacity="0.5" d="M513.307 248.733C513.167 245.423 503.014 242.951 495.605 242.692C487.293 242.407 476.539 244.685 476.279 248.085C476.03 251.361 485.557 255.669 494.306 255.919C503.465 256.185 513.445 252.059 513.307 248.733Z" fill="#D46B59"/>
<path opacity="0.5" d="M393.071 194.491C393.071 203.758 403.035 211.272 415.323 211.272C427.611 211.272 437.574 203.758 437.574 194.491C437.574 185.223 427.614 177.707 415.323 177.707C403.032 177.707 393.071 185.22 393.071 194.491ZM550.221 201.426C550.221 210.403 559.87 217.68 571.776 217.68C583.681 217.68 593.33 210.403 593.33 201.426C593.33 192.449 583.681 185.166 571.776 185.166C559.87 185.166 550.221 192.446 550.221 201.426Z" fill="#FF8E91"/>
<path opacity="0.5" d="M548.662 126.704C569.511 123.157 586.035 138.508 589.432 141.945L589.661 141.828C589.681 141.959 589.704 142.112 589.733 142.252L589.959 142.488L589.784 142.573C590.803 148.866 592.267 164.146 583.243 176.258C570.01 194.021 538.761 198.85 510.195 182.302C508.576 153.86 526.571 130.456 548.639 126.704" fill="white"/>
<path opacity="0.5" d="M516.637 159.73C516.41 165.883 518.003 171.966 521.218 177.217C524.423 182.456 529.11 186.626 534.687 189.199C540.253 191.764 546.457 192.612 552.507 191.634C558.562 190.654 564.188 187.894 568.669 183.705C573.163 179.504 576.314 174.069 577.726 168.082C579.142 162.088 578.76 155.81 576.626 150.033C574.497 144.266 570.709 139.258 565.738 135.64C560.78 132.034 554.86 129.985 548.733 129.756C544.664 129.607 540.606 130.265 536.792 131.69C532.979 133.116 529.485 135.281 526.511 138.062C520.486 143.699 516.936 151.491 516.637 159.736" fill="black"/>
<path opacity="0.5" d="M532.245 147.246C532.175 149.102 532.655 150.938 533.626 152.522C534.592 154.103 536.006 155.361 537.689 156.138C539.369 156.912 541.242 157.168 543.068 156.872C544.894 156.577 546.591 155.743 547.941 154.478C549.296 153.211 550.247 151.571 550.672 149.764C551.098 147.956 550.982 146.062 550.338 144.319C549.695 142.579 548.551 141.069 547.051 139.979C545.301 138.708 543.163 138.086 541.004 138.22C538.845 138.354 536.801 139.235 535.221 140.713C533.405 142.412 532.335 144.761 532.245 147.246ZM450.301 120.719C429.808 115.472 412.079 129.418 408.417 132.564L408.199 132.427L408.092 132.842L407.845 133.062L408.013 133.161C406.487 139.348 403.789 154.458 411.795 167.27C423.545 186.06 454.296 193.44 484.102 179.29C488.026 151.075 471.986 126.275 450.301 120.719" fill="white"/>
<path opacity="0.5" d="M472.899 152.228C472.675 158.38 470.639 164.328 467.048 169.328C463.467 174.314 458.486 178.124 452.737 180.276C446.997 182.422 440.747 182.807 434.787 181.384C428.82 179.957 423.412 176.787 419.251 172.279C415.078 167.757 412.334 162.103 411.365 156.028C410.391 149.947 411.233 143.714 413.784 138.109C416.329 132.516 420.475 127.802 425.697 124.562C430.028 121.877 434.958 120.307 440.044 119.993C445.131 119.678 450.216 120.63 454.845 122.761C458.547 124.467 461.876 126.886 464.641 129.881C467.411 132.882 469.566 136.398 470.981 140.229C472.398 144.065 473.049 148.142 472.899 152.228" fill="black"/>
<path opacity="0.5" d="M427.443 136.373C427.374 138.229 427.854 140.065 428.823 141.649C429.789 143.23 431.203 144.489 432.885 145.266C434.565 146.041 436.438 146.297 438.265 146.002C440.091 145.707 441.788 144.874 443.139 143.61C444.495 142.343 445.445 140.703 445.871 138.896C446.298 137.088 446.182 135.194 445.538 133.451C444.896 131.711 443.752 130.201 442.252 129.11C440.756 128.022 438.97 127.404 437.121 127.336C435.895 127.292 434.671 127.49 433.522 127.92C432.372 128.349 431.319 129.002 430.423 129.84C428.606 131.539 427.535 133.887 427.443 136.373" fill="white"/>
<path opacity="0.5" d="M467.142 120.201L466.465 108.961C466.465 108.961 426.544 87.8922 407.29 125.352C407.29 125.352 439.146 102.359 467.148 120.201H467.142ZM526.555 127.074L528.059 115.313C528.059 115.313 573.926 94.9275 592.896 135.074C592.896 135.074 558.94 109.57 526.561 127.074" fill="#49312F"/>
<path opacity="0.5" d="M458.735 254.829C458.735 258.658 459.865 262.402 461.979 265.585C464.09 268.765 467.097 271.246 470.62 272.715C474.136 274.181 478.009 274.565 481.744 273.818C485.483 273.068 488.914 271.224 491.602 268.519C494.297 265.807 496.13 262.358 496.87 258.606C497.614 254.851 497.233 250.96 495.776 247.42C494.322 243.887 491.854 240.864 488.684 238.732C485.522 236.605 481.799 235.469 477.988 235.469C475.457 235.47 472.951 235.971 470.615 236.945C468.278 237.918 466.157 239.343 464.374 241.139C460.76 244.779 458.732 249.7 458.735 254.829V254.829Z" fill="black"/>
<path opacity="0.5" d="M467.494 248.312L443.975 252.751C443.616 258.677 443.616 264.619 443.975 270.545C444.147 273.156 444.405 275.67 443.309 278.768C442.089 282.207 439.269 286.119 439.269 286.119C439.269 286.119 441.622 295.016 451.03 295.016L460.436 283.895C460.436 283.895 469.847 272.771 467.494 248.306" fill="black"/>
<path opacity="0.5" d="M411.809 321.673C411.809 321.673 398.048 323.205 388.648 335.564C379.248 347.923 382.966 355.312 382.966 355.312C382.966 355.312 385.418 363.213 393.207 359.668C400.996 356.124 413.111 328.558 413.111 328.558C413.111 328.558 417.392 320.87 411.809 321.673" fill="#EFAD9E"/>
<path opacity="0.5" d="M473.669 323.723C486.424 317.175 505.822 307.056 529.975 293.863C529.975 293.863 546.253 277.15 555.205 295.488C564.158 313.827 512.17 420.149 512.17 420.149C512.17 420.149 509.432 431.668 499.712 435.899C492.469 439.048 485.108 436.614 478.42 433.994C467.421 429.681 449.988 421.777 428.088 407.26L406.677 394.861C396.7 389.087 396.202 384.896 395.989 382.772C395.194 375.27 405.137 368.494 410.114 365.18C448.884 339.394 468.267 326.502 473.675 323.723" fill="#FF7B6F"/>
<path opacity="0.5" d="M420.325 348.24C420.325 348.24 424.722 361.442 417.514 375.211C410.306 388.979 402.077 388.688 402.077 388.688C402.077 388.688 393.917 389.77 393.847 381.172C393.776 372.574 413.564 349.942 413.564 349.942C413.564 349.942 418.697 342.825 420.325 348.234" fill="#EFAD9E"/>
</g>
<path opacity="0.3" d="M509.155 304.093C496.697 312.95 483.719 320.89 470.605 328.595C457.439 336.211 444.137 343.594 430.298 350.045C442.755 341.179 455.729 333.246 468.849 325.543C482.011 317.949 495.319 310.547 509.155 304.093Z" fill="black"/>
<path d="M617.891 646.852L614.509 654.234L572.586 472.234L589.235 468.398L621.596 611.2C624.308 623.168 623.006 635.697 617.891 646.852V646.852Z" fill="white"/>
<path d="M614.509 654.234H568.32L572.252 641.035H598.447L578.106 555.924L582.804 517.488L614.509 654.234V654.234Z" fill="#E0B594"/>
<path opacity="0.28" d="M552.936 674.64L336.123 642.781L389.508 15.1521L608.494 21.4696L552.936 674.64V674.64Z" fill="#FCEEDD"/>
<path d="M570.136 680.783L561.802 690.079L333.19 639.387L386.815 8.92553L619.792 8.30713L626.528 17.7962L570.136 680.783V680.783ZM344.756 626.535L560.936 665.825L614.962 30.6433L396.014 23.8902L344.756 626.535V626.535Z" fill="#C69D7F"/>
<path d="M561.564 697L321.416 661.348L379.707 0L619.584 8.51931L561.564 697ZM336.136 641.332L552.393 681.489L607.981 21.8939L388.886 15.5111L336.136 641.332Z" fill="#EFCBAB"/>
<path opacity="0.5" d="M378.781 126.374L438.165 16.5527L485.914 18.4884L370.557 235.546L378.781 126.374Z" fill="#FBE6D8"/>
<path opacity="0.65" d="M562.078 558.791L510.389 656.446L459.135 647.087L571.796 445.214L562.078 558.791Z" fill="#FCECDB"/>
<path opacity="0.5" d="M497.371 18.033L369.1 257.291L366.438 288.565L512.761 18.6248L497.371 18.033Z" fill="#FBE6D8"/>
<path opacity="0.2" d="M335.94 634.666C335.94 644.21 293.985 651.945 242.231 651.945C190.477 651.945 148.521 644.21 148.521 634.666C148.521 625.123 190.477 617.39 242.231 617.39C293.985 617.39 335.94 625.126 335.94 634.666Z" fill="#010103"/>
<path d="M209.706 635.905H175.666C175.104 635.92 174.546 635.822 174.023 635.617C173.5 635.413 173.024 635.105 172.622 634.713C172.017 634.123 171.603 633.364 171.436 632.535C171.269 631.706 171.355 630.846 171.683 630.067C172.012 629.288 172.568 628.627 173.278 628.168C173.988 627.71 174.82 627.476 175.666 627.497H209.706C210.268 627.482 210.826 627.58 211.349 627.785C211.872 627.99 212.348 628.297 212.75 628.689C213.152 629.081 213.472 629.55 213.69 630.067C213.908 630.584 214.021 631.139 214.021 631.701C214.021 632.262 213.908 632.818 213.69 633.335C213.472 633.853 213.152 634.321 212.75 634.713C212.348 635.105 211.872 635.412 211.349 635.617C210.826 635.822 210.268 635.919 209.706 635.905V635.905ZM314.117 632.48H259.662C258.547 632.48 257.477 632.037 256.688 631.249C255.9 630.46 255.456 629.39 255.456 628.275C255.456 627.16 255.9 626.09 256.688 625.301C257.477 624.513 258.547 624.07 259.662 624.07H314.123C314.681 624.061 315.234 624.164 315.752 624.372C316.269 624.579 316.741 624.888 317.138 625.279C317.535 625.67 317.851 626.137 318.066 626.651C318.281 627.165 318.392 627.717 318.392 628.275C318.392 628.833 318.281 629.385 318.066 629.899C317.851 630.413 317.535 630.88 317.138 631.271C316.741 631.662 316.269 631.971 315.752 632.178C315.234 632.386 314.681 632.489 314.123 632.48" fill="#3B3E44"/>
<path d="M191.44 603.192L174.925 620.921C174.925 620.921 170.654 626.424 177.37 627.648C184.087 628.873 201.826 631.312 207.94 628.257C214.053 625.202 212.211 620.308 212.211 620.308L209.765 603.192H191.44V603.192ZM264.864 599.154L258.748 615.668C258.748 615.668 257.526 625.448 265.476 625.448C273.426 625.448 308.276 627.281 308.276 627.281C308.276 627.281 318.056 627.281 313.165 619.946C308.273 612.613 291.154 608.939 291.154 608.939L278.315 600.381L264.864 599.154V599.154Z" fill="#EFAD9E"/>
<path d="M211.508 629.1C215.913 624.696 210.704 621.091 210.704 621.091C200.295 616.684 193.085 624.696 193.085 624.696C189.882 618.289 178.33 617.435 178.33 617.435C178.33 617.435 169.364 621.035 173.114 628.172" stroke="#3B3E44" stroke-width="0.65" stroke-miterlimit="10"/>
<path d="M278.474 627.876C280.387 625.598 282.281 623.457 284.254 621.467C286.227 619.477 288.3 617.686 290.575 616.297C292.821 614.907 295.323 613.984 297.933 613.581C300.596 613.068 303.323 613.62 306.307 613.996C303.924 612.316 301.009 610.865 297.813 610.896C294.65 610.774 291.464 611.75 288.767 613.361C286.177 615.038 283.942 617.209 282.193 619.75C280.484 622.227 279.117 624.943 278.474 627.876" fill="#3B3E44"/>
<path d="M225.881 403.707L235.875 583.162C235.875 583.162 237.298 608.834 243.013 611.198C248.728 613.561 279.001 611.767 334.414 606.073L288.147 416.456L281.293 401.036L225.881 403.707ZM171.838 396.449L146.134 601.492C146.134 601.492 145.566 604.163 167.843 609.484C190.121 614.805 217.532 615.818 228.387 608.721C239.241 601.623 238.666 582.703 238.666 582.703L239.235 410.05L171.838 396.449V396.449Z" fill="#1A0F0E"/>
<path d="M226.798 321.378L250.05 264.774L190.913 258.208L203.045 296.616L226.798 321.378Z" fill="#EFAD9E"/>
<path d="M160.258 302.119C164.813 297.825 169.912 294.15 175.426 291.187C179.25 290.275 183.143 289.685 187.066 289.424C192.968 289.031 196.485 288.854 200.116 290.848C202.249 292.046 204.064 293.739 205.406 295.785C208.688 300.065 211.967 304.343 215.243 308.619C215.588 309.012 215.998 309.59 216.473 310.271L218.971 313.61C220.457 315.356 222.182 316.793 223.976 316.594C227.866 316.167 230.022 310.45 231.314 308.583L240.497 292.545C240.884 291.551 241.421 290.622 242.089 289.792C248.498 281.854 265.436 284.217 274.184 288.027C288.191 294.122 296.909 310.673 297.817 329.995C276.948 353.162 273.754 363.306 276.656 367.731C278.586 370.672 284.227 372.617 283.709 375.134C283.356 376.864 280.491 376.97 278.421 378.308C271.55 382.744 278.376 397.537 275.244 405.817C267.464 426.401 195.352 414.169 183.538 412.166L170.238 409.224" fill="#FF7B6F"/>
<path opacity="0.3" d="M222.6 315.689C225.288 320.227 228.272 324.435 231.316 328.575C234.36 332.714 237.509 336.743 240.658 340.771C243.89 344.74 247.093 348.726 250.49 352.587C253.888 356.447 257.324 360.303 261.168 363.904C259.212 359.004 256.709 354.432 253.959 350.028C248.465 341.209 241.955 333.065 234.562 325.764C230.861 322.114 226.957 318.664 222.603 315.689" fill="black"/>
<path d="M300.239 371.31C300.239 371.31 254.248 381.383 241.612 381.947C228.975 382.51 174.896 379.162 173.386 376.905C171.877 374.646 158.728 406.016 172.879 411.616C187.031 417.216 283.565 430.648 300.746 412.186C317.927 393.722 300.245 371.321 300.245 371.321" fill="#56534C"/>
<path d="M230.961 284.977C224.524 285.66 219.589 285.182 213.948 284.607C208.72 284.072 203.53 283.208 198.41 282.019L195.078 272.774C197.944 274.018 200.914 275.007 203.954 275.73C209.238 276.986 213.242 277.068 220.23 277.213C224.797 277.362 229.37 277.237 233.923 276.84C238.051 276.465 242.153 275.845 246.208 274.986L243.039 282.491C239.103 283.709 235.058 284.542 230.961 284.977" fill="#BC8680"/>
<path d="M194.136 375.087C194.437 375.902 194.654 378.869 195.719 379.27C198.927 380.482 206.63 377.514 213.239 375.056C220.095 372.494 226.441 370.937 227.856 367.859C228.261 366.982 228.014 363.739 227.746 363.019C226.539 359.77 217.663 360.006 208.857 363.287C200.05 366.566 192.926 371.828 194.136 375.087Z" fill="#56534C"/>
<path d="M195.686 379.185C196.897 382.436 205.017 382.413 213.824 379.14C222.631 375.865 228.796 370.572 227.583 367.321C226.37 364.07 218.255 364.09 209.445 367.369C200.636 370.65 194.477 375.936 195.686 379.185V379.185Z" fill="#808080"/>
<path d="M281.811 548.726C281.811 548.726 300.014 562.413 304.903 561.356L218.588 369.262C218.588 369.262 206.818 369.652 204.351 376.042" fill="#56534C"/>
<path d="M262.108 368.824L265.073 302.709C265.073 302.709 262.496 280.918 282.012 285.396C301.528 289.874 350.027 391.139 350.027 391.139C350.027 391.139 357.082 400.014 354.25 409.589C352.233 416.402 346.308 420.28 339.548 423.884C329.611 429.18 312.951 436.611 288.407 441.656L265.754 445.784C262.237 446.282 257.669 446.325 254.686 443.714C249.085 438.82 252.516 427.593 254.591 419.722C257.723 407.863 261.058 391.006 262.108 368.835" fill="#FF7B6F"/>
<path opacity="0.3" d="M263.932 306.057C261.777 321.24 260.69 336.482 259.864 351.733C259.143 366.99 258.69 382.263 259.317 397.588C261.481 382.402 262.566 367.165 263.386 351.909C264.097 336.652 264.55 321.38 263.932 306.071" fill="black"/>
<path d="M384.221 658.89C384.221 670.666 355.334 680.209 319.696 680.209C284.058 680.209 255.177 670.666 255.177 658.89C255.177 647.114 284.064 637.573 319.696 637.573C355.328 637.573 384.221 647.114 384.221 658.89V658.89Z" fill="#C3B6B2"/>
<path d="M383.522 661.996C378.966 672.296 352.129 680.217 319.686 680.217C288.388 680.217 262.306 672.854 256.418 663.083C255.971 664.058 255.735 665.116 255.726 666.189C255.726 677.965 284.612 687.511 320.247 687.511C355.882 687.511 384.769 677.965 384.769 666.189C384.746 664.706 384.314 663.258 383.522 662.004" fill="#31312F"/>
<path d="M378.052 472.76C377.142 472.762 376.246 472.542 375.44 472.119C374.634 471.697 373.943 471.084 373.427 470.335L248.875 289.692C248.216 288.779 247.846 287.69 247.814 286.565C247.782 285.44 248.089 284.331 248.695 283.383C249.301 282.435 250.179 281.691 251.214 281.247C252.249 280.804 253.393 280.683 254.497 280.899C255.231 281.041 255.929 281.328 256.55 281.744C257.17 282.16 257.702 282.696 258.113 283.32L382.667 463.962C383.247 464.804 383.586 465.788 383.648 466.809C383.709 467.829 383.49 468.847 383.015 469.752C382.54 470.658 381.827 471.416 380.953 471.946C380.079 472.476 379.077 472.758 378.055 472.76" fill="#808080"/>
<path d="M344.944 655.524C344.944 659.86 332.888 663.376 318.017 663.376C303.144 663.376 291.086 659.86 291.086 655.524C291.086 651.187 303.141 647.672 318.017 647.672C332.891 647.672 344.944 651.185 344.944 655.524Z" fill="#9D938E"/>
<path d="M318.577 658.075C317.092 658.076 315.667 657.487 314.615 656.439C313.563 655.391 312.969 653.968 312.965 652.483V425.638C312.964 424.901 313.109 424.172 313.391 423.491C313.673 422.81 314.086 422.192 314.608 421.672C315.66 420.621 317.087 420.03 318.574 420.029C320.062 420.03 321.488 420.621 322.541 421.672C323.062 422.193 323.475 422.811 323.756 423.492C324.038 424.172 324.183 424.901 324.183 425.638V652.483C324.185 653.592 323.858 654.677 323.241 655.6C322.625 656.522 321.748 657.24 320.722 657.663C320.042 657.945 319.313 658.09 318.577 658.089" fill="#666666"/>
<path d="M316.893 392.544C315.619 391.585 314.486 390.452 313.528 389.178C312.537 387.816 311.777 386.298 311.282 384.688L321.378 376.833L346.068 412.738L324.744 428.446C324.744 428.446 311.282 432.935 309.038 422.834C309.038 422.834 304.548 416.103 311.282 411.616C318.016 407.129 323.624 403.758 323.624 403.758C324.308 398.978 323.232 396.754 322.047 395.613C320.774 394.383 319.621 394.641 316.893 392.544Z" fill="black"/>
<path d="M297.059 303.68L214.925 271.507L223.213 250.365L305.345 282.537C308.492 286.831 308.58 293.134 305.767 297.777C304.828 299.332 303.564 300.665 302.061 301.684C300.557 302.703 298.851 303.384 297.059 303.68" fill="#9D938E"/>
<path d="M101.313 193.588C85.9849 178.971 79.5389 177.81 76.5025 179.534C69.3642 183.584 70.5036 209.492 85.7879 222.039C95.8309 230.282 108.281 229.726 112.374 229.373L101.313 193.588ZM329.351 154.335C333.338 145.398 340.655 131.274 347.289 132.165C354.895 133.189 361.145 153.968 355.262 170.296C354.487 172.449 347.213 191.78 332.198 191.686C321.379 191.618 314.277 181.511 313.306 180.084" fill="#EFAD9E"/>
<path d="M330.738 121.013C352.689 182.168 317.552 250.737 252.257 274.169C186.961 297.601 124.489 270.033 102.542 208.877C80.5949 147.721 107.476 76.134 172.769 52.705C238.062 29.2759 308.788 59.8549 330.738 121.013" fill="#EFAD9E"/>
<path d="M205.454 208.399C209.078 210.181 212.606 210.961 216.02 210.346C219.434 209.732 222.484 207.812 225.285 204.894C224.863 206.953 223.801 208.826 222.25 210.244C220.663 211.748 218.669 212.753 216.516 213.133C214.363 213.513 212.146 213.252 210.14 212.381C208.19 211.528 206.493 210.172 205.454 208.395" fill="#BC8680"/>
<path d="M103.787 163.264C105.908 155.455 108.785 147.871 112.377 140.621C117.531 130.221 121.736 121.77 130.546 114.404C134.817 110.823 147.112 100.551 161.944 101.897C178.06 103.36 182.402 117.443 200.953 118.809C206.603 119.18 212.272 118.482 217.664 116.753C219.561 115.866 221.439 114.938 223.296 113.969C226.304 112.396 229.248 110.705 232.123 108.901C236.613 105.962 240.803 102.589 244.634 98.8309C247.009 96.4937 247.444 95.5855 249.255 94.3298C252.456 92.109 257.763 89.1477 264.54 88.7689C277.49 88.0435 287.277 97.2162 297.086 106.421C304.855 113.734 311.486 122.167 316.761 131.441C320.644 137.856 324.153 144.489 327.271 151.309C332.429 162.594 334.201 169.328 335.884 169.04C338.011 168.681 338.147 157.407 337.459 149.902C337.209 147.211 336.812 144.535 336.268 141.888C336.268 141.888 333.827 118.257 321.257 96.4653C303.731 66.0662 260.323 36.5195 209.84 38.5205C153.354 40.7611 109.838 81.3898 94.4737 123.256C90.3681 134.531 88.0469 146.377 87.594 158.367C87.68 168.359 89.2145 178.287 92.1495 187.84C95.3952 198.343 100.691 209.407 102.516 208.886C103.984 208.464 102.104 200.785 101.879 188.287C101.729 179.908 102.36 171.534 103.764 163.272" fill="#49312F"/>
<path d="M187.022 63.1798L229.101 56.5223L230.701 9.2352C228.058 7.43304 214.83 -1.19139 197.207 2.01519C182.054 4.77383 173.253 14.5422 170.841 17.407L187.022 63.1798Z" fill="#49312F"/>
<path d="M187.154 232.377L239.076 230.005C239.076 230.005 250.436 227.85 246.945 242.407C244.642 252.021 234.75 264.575 219.685 266.992C203.951 269.512 191.044 259.698 185.372 251.464C183.629 248.938 178.458 241.437 181.416 236.28C182.758 233.937 185.32 232.88 187.154 232.377V232.377Z" fill="#AF5354"/>
<path d="M196.522 259.846C196.658 256.535 206.872 254.063 214.323 253.805C222.681 253.52 233.495 255.797 233.76 259.197C234.01 262.473 224.429 266.781 215.63 267.031C206.419 267.297 196.382 263.171 196.522 259.846Z" fill="#D46B59"/>
<path d="M317.438 205.603C317.438 214.87 307.415 222.384 295.057 222.384C282.7 222.384 272.68 214.87 272.68 205.603C272.68 196.335 282.697 188.805 295.057 188.805C307.418 188.805 317.438 196.318 317.438 205.603ZM159.398 212.539C159.398 221.515 149.694 228.792 137.718 228.792C125.742 228.792 116.044 221.515 116.044 212.539C116.044 203.562 125.748 196.278 137.718 196.278C149.689 196.278 159.397 203.562 159.397 212.539H159.398Z" fill="#FF8E91"/>
<path d="M160.967 137.817C139.998 134.269 123.381 149.62 119.965 153.057L119.734 152.94C119.715 153.074 119.688 153.224 119.663 153.365L119.435 153.6L119.609 153.686C118.586 159.979 117.111 175.259 126.189 187.37C139.498 205.133 170.924 209.962 199.651 193.415C201.277 164.972 183.179 141.569 160.989 137.817" fill="white"/>
<path d="M193.17 170.843C193.397 176.999 191.793 183.084 188.561 188.329C185.329 193.574 180.614 197.743 175.012 200.308C169.41 202.873 163.173 203.719 157.091 202.739C151.008 201.76 145.352 198.999 140.839 194.805C137.465 191.67 134.828 187.826 133.118 183.55C131.408 179.274 130.668 174.671 130.951 170.075C131.233 165.478 132.532 161.001 134.753 156.967C136.973 152.932 140.061 149.44 143.794 146.742C148.366 143.438 153.749 141.437 159.369 140.953C164.989 140.47 170.635 141.521 175.704 143.995C180.773 146.469 185.076 150.273 188.151 155.001C191.227 159.729 192.962 165.203 193.169 170.84" fill="black"/>
<path d="M177.476 158.358C177.528 159.595 177.335 160.829 176.908 161.991C176.482 163.153 175.83 164.219 174.99 165.128C174.15 166.037 173.139 166.772 172.015 167.289C170.89 167.806 169.675 168.096 168.438 168.142C167.201 168.188 165.967 167.99 164.807 167.558C163.647 167.126 162.584 166.469 161.679 165.624C160.774 164.78 160.044 163.766 159.533 162.639C159.021 161.512 158.737 160.295 158.696 159.058C158.616 156.575 159.522 154.162 161.216 152.345C162.911 150.529 165.255 149.457 167.738 149.365C170.22 149.272 172.638 150.166 174.463 151.852C176.288 153.537 177.371 155.876 177.476 158.358ZM259.899 131.831C280.509 126.585 298.339 140.53 302.017 143.676L302.24 143.539L302.348 143.955L302.595 144.174L302.427 144.273C303.963 150.46 306.676 165.57 298.62 178.382C286.807 197.172 255.881 204.552 225.907 190.402C221.961 162.188 238.091 137.387 259.899 131.831" fill="white"/>
<path d="M237.167 163.352C237.472 171.607 241.044 179.403 247.097 185.025C253.151 190.647 261.19 193.635 269.446 193.33C277.702 193.025 285.499 189.454 291.122 183.401C296.744 177.348 299.732 169.31 299.427 161.054C299.276 156.967 298.321 152.949 296.618 149.23C294.914 145.511 292.494 142.165 289.497 139.381C283.443 133.759 275.404 130.772 267.148 131.076C258.892 131.381 251.095 134.953 245.473 141.005C239.85 147.058 236.863 155.097 237.167 163.352" fill="black"/>
<path d="M282.871 147.485C282.941 149.342 282.458 151.179 281.483 152.761C280.51 154.345 279.088 155.604 277.398 156.379C275.708 157.153 273.827 157.409 271.991 157.114C270.234 156.832 268.593 156.056 267.26 154.878C265.926 153.7 264.954 152.167 264.458 150.458C263.961 148.749 263.961 146.934 264.456 145.225C264.95 143.516 265.921 141.982 267.253 140.802C268.586 139.623 270.226 138.846 271.983 138.562C273.74 138.279 275.541 138.5 277.178 139.2C278.814 139.9 280.218 141.05 281.225 142.517C282.233 143.984 282.804 145.706 282.871 147.485" fill="white"/>
<path d="M242.948 131.313L243.625 120.073C243.625 120.073 283.772 99.0053 303.135 136.464C303.135 136.464 271.099 113.471 242.939 131.313H242.948ZM183.197 138.187L181.685 126.425C181.685 126.425 135.557 106.04 116.48 146.187C116.48 146.187 150.628 120.682 183.191 138.187" fill="#49312F"/>
<path d="M251.404 265.941C251.405 269.77 250.27 273.513 248.143 276.696C246.016 279.88 242.993 282.361 239.456 283.827C235.918 285.292 232.026 285.676 228.27 284.93C224.515 284.184 221.065 282.342 218.356 279.636C216.332 277.613 214.781 275.166 213.816 272.471C212.851 269.777 212.495 266.902 212.774 264.054C213.053 261.205 213.961 258.454 215.431 255.998C216.9 253.542 218.896 251.443 221.275 249.851C223.655 248.259 226.359 247.214 229.191 246.793C232.024 246.372 234.914 246.584 237.655 247.414C240.396 248.244 242.918 249.671 245.041 251.593C247.163 253.515 248.833 255.884 249.93 258.529C250.903 260.879 251.404 263.398 251.404 265.941" fill="black"/>
<path d="M242.592 259.424L266.245 263.874C266.605 269.801 266.605 275.743 266.245 281.669C266.071 284.279 265.81 286.794 266.914 289.894C268.138 293.33 270.978 297.242 270.978 297.242C270.978 297.242 268.611 306.139 259.15 306.139L249.697 295.019C249.697 295.019 240.231 283.895 242.598 259.43" fill="black"/>
<path d="M298.592 332.785C298.592 332.785 312.433 334.318 321.884 346.677C331.334 359.035 327.601 366.424 327.601 366.424C327.601 366.424 325.135 374.325 317.302 370.78C309.469 367.236 297.283 339.67 297.283 339.67C297.283 339.67 292.98 331.983 298.592 332.785V332.785Z" fill="#EFAD9E"/>
<path d="M236.382 334.836C223.552 328.287 204.045 318.168 179.757 304.978C179.757 304.978 163.385 288.263 154.381 306.6C145.377 324.939 197.661 431.261 197.661 431.261C197.661 431.261 200.414 442.781 210.189 447.011C217.472 450.16 224.876 447.726 231.601 445.106C242.663 440.793 260.191 432.889 282.219 418.372L303.75 405.973C313.785 400.199 314.272 396.008 314.497 393.885C315.296 386.382 305.297 379.606 300.294 376.292C261.305 350.506 241.812 337.614 236.374 334.836" fill="#FF7B6F"/>
<path d="M290.026 359.352C290.026 359.352 285.607 372.554 292.856 386.323C300.105 400.091 308.377 399.801 308.377 399.801C308.377 399.801 316.583 400.882 316.657 392.284C316.731 383.686 296.828 361.055 296.828 361.055C296.828 361.055 291.663 353.923 290.026 359.346" fill="#EFAD9E"/>
<path opacity="0.3" d="M200.696 315.205C213.224 324.061 226.276 332.002 239.465 339.707C252.705 347.323 266.082 354.705 280 361.157C267.472 352.291 254.422 344.359 241.23 336.655C227.984 329.047 214.607 321.662 200.696 315.205Z" fill="black"/>
</svg>
