<svg width="145" height="40" fill="none" xmlns="http://www.w3.org/2000/svg">
    <path d="M144.49 8.343c-.135.106-.273.207-.403.32-.795.685-1.65.77-2.393.02a1.507 1.507 0 0 1-.516-1.148 1.52 1.52 0 0 1 .527-1.144c.738-.74 1.589-.716 2.382.01.124.114.268.205.403.306v1.636zM78.515 13.812c2.851-3.429 6.781-3.265 8.81.217.127-.144.248-.26.346-.395 1.365-1.861 3.191-2.694 5.437-2.171 2.352.548 3.427 2.401 3.575 4.605.209 3.123.135 6.269.09 9.404-.017 1.2-1.033.433-1.571.578-.54.145-1.05.093-1.031-.77.047-2.226.027-4.454.009-6.682a10.223 10.223 0 0 0-.222-2.707c-.361-1.296-1.109-2.2-2.495-2.339-1.35-.134-2.344.522-3.041 1.649a4.297 4.297 0 0 0-.573 2.347c.016 2.546-.05 5.094.032 7.639.034 1.074-.588.926-1.192.88-.616-.047-1.51.406-1.462-.907.072-2.089.021-4.182.017-6.274 0-.636 0-1.273-.04-1.908-.125-2.148-1.205-3.424-2.896-3.448-1.748-.025-3.38 1.544-3.449 3.526a108.659 108.659 0 0 0-.014 7.908c.048 1.26-.636 1.086-1.415 1.13-.846.048-1.272-.05-1.258-1.12.05-4.135 0-8.273-.056-12.409-.008-.665.066-1.077.835-.943.596.103 1.573-.44 1.479.876.002.44.03.878.085 1.314zM110.865 23.752c-1.39 1.819-2.979 2.68-5.022 2.6-2.627-.103-4.471-1.947-4.644-5.058-.165-2.991-.072-5.999-.06-8.998.005-1.252.987-.547 1.512-.647.501-.096 1.2-.283 1.173.749-.055 2.09-.019 4.182-.015 6.273 0 .682-.014 1.366.038 2.045.167 2.179 1.311 3.434 3.093 3.436a3.696 3.696 0 0 0 2.558-1.077 3.745 3.745 0 0 0 1.1-2.562c.059-2.59.096-5.186-.017-7.772-.054-1.24.584-1.118 1.38-1.137.853-.021 1.387-.014 1.365 1.171-.076 4.045-.014 8.092.002 12.138.002.626.194 1.297-.877 1.186-.8-.082-1.722.182-1.533-1.168a8.153 8.153 0 0 0-.053-1.18zM56.913 26.349c-2.825-.004-4.2-1.336-4.269-3.975a154.272 154.272 0 0 1 0-7.489c.02-.898-.148-1.392-1.15-1.215-.913.16-1.098-.28-1.13-1.14-.037-1.025.537-1 1.178-.913.918.124 1.208-.267 1.089-1.13a7.021 7.021 0 0 1-.007-.953c0-1.364.733-2.036 2.106-2.013.596.01.495.397.5.738.012.863.033 1.727 0 2.588-.024.6.212.803.788.767.584-.036 1.173.018 1.757-.014.746-.04 1.227-.007 1.228 1.03 0 1.062-.537 1.039-1.265 1.048-2.503.034-2.507.045-2.5 2.588.004 1.906-.027 3.814.048 5.719.067 1.683.751 2.256 2.413 2.164.535-.03 1.09-.27 1.099.649.006.7.157 1.404-.86 1.468-.45.027-.898.072-1.025.083zM43.56 26.32a8.233 8.233 0 0 1-3.766-.604c-1.166-.457-.29-1.178-.199-1.777.135-.88.646-.327.98-.193 1.278.514 2.562.84 3.94.44.4-.084.766-.29 1.046-.589.28-.3.462-.68.52-1.086a1.987 1.987 0 0 0-.91-1.986c-.776-.57-1.7-.813-2.56-1.195-2.417-1.074-3.414-2.636-2.974-4.694.397-1.867 2.294-3.212 4.6-3.295a9.575 9.575 0 0 1 2.796.373c.998.26 1.115.754.751 1.684-.265.677-.49.663-1.058.415a4.591 4.591 0 0 0-3.16-.32 1.868 1.868 0 0 0-.988.557 1.89 1.89 0 0 0-.489 1.028 1.66 1.66 0 0 0 .193 1.06c.18.322.462.573.8.715 1.078.555 2.216.993 3.292 1.552 1.269.66 2.116 1.654 2.225 3.172.182 2.6-1.452 4.418-4.298 4.736a4.346 4.346 0 0 1-.74.006zM119.841 14.061c.948-1.172 1.799-2.271 3.252-2.626.513-.125 1.241-.35 1.522.071.391.586.176 1.403.098 2.113-.039.358-.43.205-.675.233-2.3.258-3.581 1.514-3.691 3.885a83.125 83.125 0 0 0-.04 7.218c.05 1.25-.623 1.1-1.409 1.135-.831.04-1.278-.029-1.266-1.11.047-4.177-.01-8.355-.069-12.533-.01-.67.198-.965.825-.819.528.124 1.49-.551 1.457.733-.016.568-.004 1.135-.004 1.7zM144.186 18.793c0 2.134-.052 4.27.021 6.401.039 1.211-.761.88-1.351.863-.56-.017-1.383.42-1.368-.825a700.5 700.5 0 0 0 .01-12.803c-.009-1.364.967-.693 1.527-.792.619-.108 1.227-.155 1.185.892-.082 2.085-.024 4.176-.024 6.264z" fill="#050605"/>
    <path fill-rule="evenodd" clip-rule="evenodd" d="M65.238 26.353c1.68.008 3.014-.741 4.362-2.082-.005.453.043.906.142 1.348.239.6.677.532 1.118.464.217-.033.435-.067.63-.02.393.094.7-.021.632-.569-.22-1.753-.203-3.514-.187-5.274.013-1.465.027-2.93-.096-4.389-.155-1.882-1.04-3.41-2.896-4.082-2.241-.81-4.428-.44-6.563.52-.684.307-.517.704-.351 1.1.051.122.103.245.13.366.141.662.504.486.88.305l.115-.055a6.895 6.895 0 0 1 3.146-.664c1.68.056 2.555.813 2.952 2.268.274 1.002-.022 1.232-1.002 1.24a9.794 9.794 0 0 0-5.415 1.441 4.548 4.548 0 0 0-1.807 2.229 4.583 4.583 0 0 0-.12 2.874c.57 1.92 2.127 2.97 4.33 2.98zm1.292-2.057c1.9-.386 2.888-1.736 2.896-4.127-.18-.116-.115-.356-.048-.609.101-.379.21-.786-.481-.848a6.577 6.577 0 0 0-4.272.901c-.533.35-.927.876-1.113 1.488a2.746 2.746 0 0 0 .094 1.86c.446 1.086 1.587 1.607 2.924 1.335zM130.312 26.357c1.781.066 3.194-.703 4.601-2.066.02.202.038.36.052.49.022.2.037.335.045.472.049 1.065.635.953 1.198.845.226-.043.449-.086.632-.052.745.142.653-.355.577-.766a3.01 3.01 0 0 1-.036-.23c-.185-1.8-.167-3.601-.15-5.404.009-.876.017-1.753.003-2.63-.037-2.156-.506-4.135-2.649-5.106-2.382-1.08-4.753-.67-7.034.46-.587.291-.402.645-.223.987.073.14.146.278.164.41.086.6.491.458.885.262a6.823 6.823 0 0 1 3.136-.71c1.692.017 2.626.753 3.024 2.172.272.973.12 1.336-1.012 1.347-2.138.022-4.234.41-5.939 1.873a4.494 4.494 0 0 0-1.405 2.277c-.227.886-.18 1.82.134 2.678.621 1.674 2.074 2.619 3.997 2.69zm1.437-2.043c1.946-.321 2.98-1.738 2.986-4.115-.086-.15-.05-.377-.013-.607.063-.397.128-.806-.426-.86-1.659-.164-3.343.002-4.709 1.161a2.706 2.706 0 0 0-.589 3.225c.593 1.124 1.602 1.386 2.751 1.196z" fill="#050605"/>
    <path fill-rule="evenodd" clip-rule="evenodd" d="M24.465 13.008c.014-.453.001-.907-.04-1.36a9.304 9.304 0 0 0-.48-2.2 5.677 5.677 0 0 1-.293-1.085.624.624 0 0 1 0-.226c.043-.2.172-.23.308-.134.332.256.614.573.83.934a9.038 9.038 0 0 1 1.173 2.665c.187.71.321 1.432.4 2.162.079.706.098 1.418.058 2.128a8.145 8.145 0 0 1-.575 2.774 14.34 14.34 0 0 1-1.287 2.457c-.311.45-.653.878-1.023 1.28a11.496 11.496 0 0 1-2.118 1.775c-.678.447-1.406.813-2.168 1.092a9.279 9.279 0 0 1-1.796.477c-.337.068-.681.1-1.025.1-.302-.011-.601.023-.906.007a9.363 9.363 0 0 1-2.1-.34 10.443 10.443 0 0 1-3.626-1.934 11.256 11.256 0 0 1-1.668-1.666 11.653 11.653 0 0 1-1.572-2.461 10.05 10.05 0 0 1-.692-1.76 6.787 6.787 0 0 1-.201-1.422A13.35 13.35 0 0 1 5.64 14.9c.02-.712.08-1.421.18-2.126.085-.544.205-1.081.36-1.61A8.215 8.215 0 0 1 7.224 8.97c.217-.333.477-.636.772-.901.093-.08.194-.15.309-.103.115.047.114.17.114.283-.023.33-.103.652-.238.954a11.491 11.491 0 0 0-.592 2.296 10.44 10.44 0 0 0-.094 1.192c-.01.353.01.706.063 1.055.094.639.243 1.268.447 1.88a8.862 8.862 0 0 0 3.743 4.592 9.512 9.512 0 0 0 2.62 1.096c.762.19 1.549.254 2.331.193a7.51 7.51 0 0 0 2.03-.452 8.379 8.379 0 0 0 2.322-1.286 9.852 9.852 0 0 0 3.234-4.56 5.16 5.16 0 0 0 .18-1.197c.016-.31 0-.62 0-1.004z" fill="#F09825"/>
    <path fill-rule="evenodd" clip-rule="evenodd" d="M31.586 30.666c-1.778-2.288-3.112-2.611-3.804-2.736a9.973 9.973 0 0 0-5.187.72 352.172 352.172 0 0 0-5.982 2.937s-1.112.597-4.718 2.437c-3.605 1.84-5.212 2.24-5.459 2.271-1.465.116-1.976-.149-2.207-.298a3.277 3.277 0 0 1-1.251-2.04 4.042 4.042 0 0 1 .675-3 5.475 5.475 0 0 1 2.13-1.602 5.44 5.44 0 0 1 2.63-.403c-2.174-1.64-4.694-.77-5.188-.523a6.255 6.255 0 0 0-1.945 1.704 6.303 6.303 0 0 0-1.095 2.35c-.617 2.934.495 4.476.618 4.7 1.778 2.288 3.112 2.611 3.804 2.736a9.972 9.972 0 0 0 5.187-.72c2.668-1.268 5.982-2.937 5.982-2.937s1.112-.597 4.718-2.437c3.605-1.84 5.212-2.24 5.46-2.271 1.465-.116 1.975.149 2.206.298a3.278 3.278 0 0 1 1.251 2.04 4.04 4.04 0 0 1-.675 3s-1.766 2.057-3.973 1.875c-.592-.083-1.202-.1-.247.564.247.132 2.463 1.221 4.648.088a6.254 6.254 0 0 0 1.944-1.703 6.303 6.303 0 0 0 1.095-2.35c.617-2.935-.494-4.476-.617-4.7z" fill="#533B58"/>
    <path d="M11.484 7.645a7.28 7.28 0 0 0 .823 2.343c.195.387.473.725.815.989a.191.191 0 0 0 .204.02c.093-.034.062-.104.07-.167a1.807 1.807 0 0 0-.138-.728 7.987 7.987 0 0 1-.273-2.244c-.013-.38.016-.76.087-1.134.047-.385.145-.761.29-1.12.167-.388.383-.752.643-1.083a2.707 2.707 0 0 1 1.86-1.074 2.63 2.63 0 0 1 2.07.752 4.428 4.428 0 0 1 1.316 2.996c.012.451-.001.902-.04 1.352-.067.445-.119.892-.191 1.336-.084.31-.143.627-.179.947-.003.2.084.244.27.16a.465.465 0 0 0 .141-.114c.403-.43.727-.93.96-1.473.248-.546.425-1.124.526-1.717.082-.557.12-1.12.111-1.684a7.691 7.691 0 0 0-.476-2.644 5.478 5.478 0 0 0-1.438-2.24 4.154 4.154 0 0 0-4.161-.901 4.404 4.404 0 0 0-2.283 1.885 6.682 6.682 0 0 0-.882 2.09 11.085 11.085 0 0 0-.263 2c.02.486.065.971.138 1.453z" fill="#533B58"/>
</svg>
